<svg width="352" height="60" viewBox="0 0 352 60" fill="none" xmlns="http://www.w3.org/2000/svg">
<rect x="62.5591" y="7" width="19.3153" height="72.2371" rx="9.65767" transform="rotate(60 62.5591 7)" fill="#F2FE53"/>
<rect x="25.3201" width="52.1087" height="51" rx="25.5" fill="#F2FE53"/>
<mask id="mask0_17_6" style="mask-type:alpha" maskUnits="userSpaceOnUse" x="25" y="0" width="53" height="51">
<rect x="25.3201" width="52.1087" height="51" rx="25.5" fill="#F2FE53"/>
</mask>
<g mask="url(#mask0_17_6)">
<path d="M55.0253 17.0246C54.8394 17.0372 54.6534 17.0493 54.4675 17.0614C54.3713 17.0676 54.2752 17.0738 54.1791 17.0801C54.1791 17.0801 54.1791 17.0801 54.179 17.0801C54.1637 17.0811 54.1483 17.0822 54.133 17.0832C53.0181 17.1566 51.9032 17.23 50.7883 17.3032C50.7729 17.3042 50.7575 17.3052 50.7422 17.3062L55.0253 17.0246Z" fill="#100F0D" stroke="black" stroke-width="2"/>
<path d="M34.3324 28.4655C34.6879 28.5344 35.0445 28.5975 35.4021 28.6544C35.7795 28.7143 36.158 28.7674 36.5371 28.8147C36.8981 28.8595 37.2599 28.8983 37.6223 28.9308C37.9828 28.9632 38.3438 28.9893 38.7052 29.0093C39.0666 29.0293 39.4283 29.0431 39.7902 29.0506C39.8354 29.0516 39.8806 29.0524 39.9258 29.0532C39.993 29.0543 40.0659 29.0224 40.1131 28.9742C40.1591 28.9276 40.1937 28.8509 40.1907 28.7838C40.1877 28.7141 40.1652 28.6419 40.1131 28.5933C40.0608 28.5445 39.998 28.5157 39.9258 28.5144C39.4337 28.5061 38.9417 28.4865 38.4505 28.4553C37.961 28.4244 37.4723 28.3819 36.9847 28.3283C36.7095 28.298 36.4346 28.2642 36.1602 28.2267C36.1837 28.2299 36.2071 28.2331 36.2306 28.2363C35.7715 28.1736 35.3137 28.1008 34.8576 28.0182C34.7293 27.9948 34.6012 27.9708 34.4732 27.946C34.4023 27.9322 34.3332 27.9349 34.2691 27.973C34.2142 28.0059 34.1618 28.0699 34.1474 28.1342C34.132 28.203 34.1353 28.2806 34.1741 28.3417C34.2098 28.398 34.2653 28.4524 34.3324 28.4655Z" fill="#100F0D"/>
<path d="M67.6997 26.6504C66.9483 26.5724 66.1901 26.6724 65.4549 26.8315C64.7264 26.9893 64.0126 27.2086 63.2886 27.3851C62.9391 27.4703 62.5864 27.5414 62.2302 27.5904C62.2536 27.5871 62.2772 27.5841 62.3005 27.5808C61.7485 27.656 61.1871 27.6795 60.6336 27.6056C60.6572 27.6087 60.6806 27.612 60.7041 27.6152C60.3568 27.5677 60.0152 27.4808 59.6914 27.3433C59.7127 27.3522 59.7337 27.3613 59.7549 27.3703C59.544 27.2796 59.3426 27.1683 59.1545 27.0357C59.1005 26.9978 59.0115 26.9915 58.9502 27.0087C58.8887 27.0259 58.8223 27.0741 58.7919 27.1325C58.7208 27.2698 58.7651 27.4152 58.887 27.501C59.6739 28.0544 60.6544 28.2231 61.5947 28.1841C62.0807 28.1638 62.5654 28.0925 63.0415 27.9929C63.5534 27.8857 64.0574 27.7423 64.5625 27.6072C65.15 27.45 65.7412 27.3001 66.344 27.2164C66.3204 27.2197 66.2971 27.223 66.2735 27.2262C66.7462 27.1615 67.2247 27.1399 67.6997 27.1892C67.7632 27.1959 67.8437 27.1545 67.887 27.1103C67.9331 27.0636 67.9676 26.9869 67.9646 26.9198C67.9616 26.8503 67.9391 26.7779 67.887 26.7293C67.8324 26.6783 67.7735 26.6581 67.6997 26.6504Z" fill="#100F0D"/>
<path d="M54.1151 27.5907C52.8845 27.5571 51.653 27.5572 50.4226 27.5915C49.1921 27.6259 47.9625 27.6943 46.7357 27.7967C46.0444 27.8545 45.3541 27.9231 44.6649 28.0022C44.5924 28.0106 44.5311 28.0267 44.4776 28.0812C44.4316 28.1279 44.397 28.2046 44.4 28.2717C44.4031 28.3413 44.4256 28.4136 44.4776 28.4621C44.526 28.5073 44.5965 28.5489 44.6649 28.5411C45.8881 28.4006 47.1149 28.2935 48.3438 28.2209C49.5728 28.1481 50.8036 28.1094 52.0345 28.1049C52.7281 28.1023 53.4217 28.1106 54.1151 28.1296C54.2536 28.1333 54.3861 28.0029 54.3799 27.8602C54.3734 27.7109 54.2635 27.5947 54.1151 27.5907Z" fill="#100F0D"/>
<path d="M53.912 26.3325C53.3669 26.1043 52.7658 26.707 52.7555 27.3065C52.7453 27.9058 53.1177 28.4357 53.4932 28.8979C53.8688 29.3601 54.2808 29.8386 54.3764 30.4301C54.4296 30.7605 54.3986 31.1504 54.6468 31.3701C54.7895 31.4964 54.9884 31.5274 55.176 31.5533C55.8582 31.6475 56.5405 31.7419 57.2227 31.8361C57.8586 31.924 58.5562 31.9991 59.0963 31.6468C59.7181 31.2412 59.9089 30.4215 60.0474 29.6835C60.2698 28.499 60.4923 27.3143 60.7147 26.1297C60.7526 25.9277 60.7858 25.7006 60.67 25.5318C60.4627 25.2294 60.0039 25.3651 59.6725 25.5147C57.9429 26.2953 56.0071 26.5974 54.1268 26.38" fill="#F7906D"/>
<path d="M45.3453 33.1602C45.3911 33.541 45.4545 33.9192 45.5422 34.2926C45.584 34.4706 45.6308 34.6473 45.6826 34.8225C45.733 34.993 45.7861 35.167 45.8724 35.3228C45.9577 35.4771 46.0831 35.6145 46.2367 35.7001C46.3809 35.7804 46.5413 35.8195 46.705 35.8247C46.8525 35.8294 47.0057 35.8037 47.1458 35.757C47.289 35.7092 47.4294 35.6427 47.5531 35.5547C47.867 35.3314 48.0888 35.0134 48.3201 34.7088C48.3063 34.7271 48.2924 34.7453 48.2787 34.7634C48.4087 34.5924 48.5432 34.4107 48.7117 34.2766C48.6937 34.2906 48.6759 34.3046 48.658 34.3187C48.6949 34.2902 48.7338 34.2652 48.7765 34.2467C48.7553 34.2557 48.7343 34.2648 48.7131 34.2738C48.7392 34.2634 48.7652 34.2559 48.7927 34.2515C48.7692 34.2546 48.7458 34.2579 48.7223 34.2611C48.7497 34.2577 48.7765 34.2578 48.8037 34.2615C48.7803 34.2582 48.7568 34.255 48.7334 34.2518C48.7561 34.2553 48.7779 34.2612 48.7993 34.2699C48.7781 34.2608 48.7571 34.2518 48.7361 34.2427C48.7579 34.2523 48.778 34.2644 48.797 34.279C48.7791 34.2651 48.7613 34.2509 48.7433 34.2369C48.7637 34.2537 48.7815 34.2726 48.7975 34.2937C48.7838 34.2755 48.77 34.2572 48.7561 34.2391C48.78 34.2715 48.7986 34.307 48.8144 34.3442C48.8055 34.3227 48.7966 34.3013 48.7877 34.2799C48.8362 34.3985 48.8555 34.5277 48.8724 34.6543C48.8693 34.6304 48.866 34.6065 48.8629 34.5827C48.8869 34.7659 48.9002 34.9494 48.9708 35.1218C49.0467 35.3069 49.1508 35.4728 49.2921 35.6146C49.5464 35.87 49.8925 36.0432 50.2457 36.0968C50.3476 36.1121 50.4496 36.1242 50.5527 36.1237C50.6538 36.1231 50.7548 36.1111 50.8545 36.094C51.0412 36.0621 51.2222 35.9882 51.3853 35.8915C51.7332 35.6854 52.0127 35.362 52.1918 34.9971C52.3764 34.6208 52.4749 34.2024 52.4753 33.7815C52.4753 33.7339 52.474 33.6865 52.4713 33.639C52.4672 33.5676 52.4445 33.5003 52.3938 33.4486C52.3478 33.4018 52.2724 33.3667 52.2065 33.3697C52.1378 33.3727 52.0669 33.3956 52.019 33.4486C51.9731 33.4996 51.9375 33.5677 51.9415 33.639C51.9503 33.7948 51.9442 33.9509 51.9241 34.1054C51.9272 34.0816 51.9303 34.0577 51.9336 34.0338C51.9047 34.249 51.849 34.4599 51.7662 34.6602C51.7751 34.6386 51.784 34.6172 51.7929 34.5957C51.7215 34.7666 51.6304 34.9283 51.5189 35.0754C51.5327 35.0572 51.5466 35.0391 51.5603 35.0208C51.4666 35.1433 51.3594 35.254 51.2387 35.349C51.2567 35.335 51.2745 35.3209 51.2924 35.3069C51.1836 35.3916 51.0654 35.4631 50.9391 35.5174C50.9602 35.5083 50.9812 35.4993 51.0024 35.4902C50.8944 35.5358 50.7811 35.5659 50.6654 35.5818C50.6889 35.5787 50.7123 35.5754 50.7358 35.5722C50.6031 35.5898 50.469 35.5886 50.3364 35.5705C50.3599 35.5738 50.3833 35.5769 50.4068 35.5802C50.2689 35.5607 50.1342 35.5234 50.0055 35.469C50.0267 35.478 50.0477 35.4871 50.0689 35.4961C49.95 35.4451 49.8377 35.3798 49.7352 35.2999C49.7531 35.314 49.7709 35.328 49.7889 35.342C49.7036 35.2748 49.6264 35.1981 49.5599 35.1117C49.5737 35.1298 49.5875 35.1481 49.6013 35.1662C49.5424 35.0886 49.4929 35.0044 49.4549 34.9141C49.4638 34.9355 49.4727 34.957 49.4816 34.9784C49.4423 34.8834 49.4185 34.7848 49.405 34.6828C49.4081 34.7066 49.4113 34.7305 49.4144 34.7544C49.3754 34.4576 49.3618 34.1274 49.1554 33.8919C49.0226 33.7405 48.8009 33.6868 48.6116 33.7405C48.4134 33.7967 48.2601 33.9532 48.1271 34.105C47.9876 34.2645 47.8631 34.437 47.7349 34.606C47.7487 34.5879 47.7625 34.5696 47.7763 34.5515C47.627 34.7478 47.4712 34.9454 47.277 35.0982C47.2949 35.084 47.3127 35.0701 47.3307 35.0561C47.2409 35.1256 47.1428 35.1829 47.0389 35.2278C47.0599 35.2187 47.0809 35.2097 47.1021 35.2006C47.0041 35.2419 46.9021 35.2716 46.797 35.2866C46.8204 35.2833 46.8439 35.2801 46.8674 35.277C46.7842 35.2881 46.7003 35.2896 46.617 35.2785C46.6404 35.2818 46.6639 35.2849 46.6874 35.2881C46.624 35.279 46.5624 35.2629 46.5032 35.2382C46.5243 35.2472 46.5454 35.2563 46.5665 35.2653C46.5155 35.2433 46.4677 35.2154 46.4235 35.1815C46.4413 35.1955 46.4592 35.2097 46.4771 35.2236C46.4304 35.1869 46.3894 35.1444 46.3531 35.0971C46.3669 35.1152 46.3808 35.1334 46.3946 35.1515C46.3444 35.0839 46.3056 35.0096 46.2729 34.9318C46.2818 34.9533 46.2907 34.9747 46.2996 34.9961C46.2119 34.783 46.1545 34.5543 46.0975 34.331C46.0374 34.0957 45.9862 33.8579 45.944 33.6185C45.9197 33.4808 45.8985 33.3424 45.8801 33.2038C45.8833 33.2276 45.8864 33.2515 45.8896 33.2753C45.8845 33.2369 45.8797 33.1986 45.8751 33.1602C45.8662 33.0861 45.8514 33.0244 45.7975 32.9697C45.7516 32.9229 45.6762 32.8877 45.6102 32.8907C45.5417 32.8938 45.4707 32.9167 45.4229 32.9697C45.3788 33.0185 45.337 33.0909 45.3453 33.1602Z" fill="#100F0D"/>
<path d="M38.4851 26.4264C38.5664 27.1598 38.6476 27.8933 38.7289 28.6268C38.8011 29.2789 38.8797 29.9514 39.1996 30.5213C39.6667 31.3536 40.598 31.8382 41.5338 31.9494C42.4696 32.0606 43.4141 31.8439 44.3097 31.5464C44.5753 31.4582 44.8407 31.3617 45.0801 31.2153C46.3574 30.4339 46.457 28.6228 46.4078 27.1075C46.3954 26.7249 46.377 26.3214 46.1752 25.9983C45.9582 25.6507 45.5627 25.4575 45.1675 25.3685C43.6995 25.0385 42.2043 25.919 40.7063 25.7895C40.2409 25.7493 39.7711 25.6119 39.3143 25.7108C38.8574 25.8098 38.4268 26.2793 38.5863 26.7257" fill="#F7906D"/>
</g>
<path d="M93.0892 41.3491C99.6897 41.3491 103.815 37.0067 103.815 30.1023V10.5181H99.6463V30.0589C99.6463 34.6618 97.0842 37.441 93.0892 37.441C89.0508 37.441 86.5757 34.575 86.5757 30.0589V10.5181H82.3201V30.1023C82.3201 37.0501 86.4888 41.3491 93.0892 41.3491Z" fill="white"/>
<path d="M119.131 41.3491C124.776 41.3491 128.598 38.3963 128.598 34.0105C128.598 30.1892 125.558 28.6693 122.345 28.1917L117.394 27.5403C116.396 27.41 114.268 27.0626 114.268 25.0217C114.268 23.1545 116.048 21.9821 118.567 21.9821C120.868 21.9821 122.518 22.9374 122.996 24.6309H127.078C126.6 20.9399 123.517 18.7687 118.567 18.7687C113.617 18.7687 110.316 21.3741 110.316 25.1954C110.316 28.843 113.226 30.2326 116.352 30.6668L121.303 31.3182C122.388 31.4919 124.559 31.8827 124.559 34.1842C124.559 36.5291 122.388 38.0489 119.175 38.0489C115.18 38.0489 112.488 35.5737 112.618 32.0564H108.493C108.406 37.6581 112.878 41.3491 119.131 41.3491Z" fill="white"/>
<path d="M143.541 41.3491C149.708 41.3491 154.354 37.5278 154.614 31.9696H150.489C150.316 35.4 147.406 37.8318 143.455 37.8318C139.069 37.8318 135.942 34.6618 135.942 29.7984C135.942 29.7549 135.942 29.6681 135.942 29.6247H154.224C154.354 23.0676 150.012 18.7687 143.411 18.7687C136.767 18.7687 131.991 23.415 131.991 29.9721C131.991 36.5725 136.724 41.3491 143.541 41.3491ZM136.463 26.6718C137.375 23.7624 139.85 21.9386 143.411 21.9386C146.842 21.9386 149.23 23.6322 149.968 26.6718H136.463Z" fill="white"/>
<path d="M160.1 40.9149H164.182V27.1495H167.091L178.903 40.9149H184.331L172.129 27.1495C177.296 27.1495 180.727 23.719 180.683 18.8121C180.683 13.8618 177.122 10.5181 171.825 10.5181H160.1V40.9149ZM164.182 24.023V14.1223H171.173C174.43 14.1223 176.514 16.0764 176.514 19.0292C176.514 22.0255 174.43 24.023 171.173 24.023H164.182Z" fill="white"/>
<path d="M196.591 41.3491C202.758 41.3491 207.404 37.5278 207.665 31.9696H203.539C203.366 35.4 200.456 37.8318 196.505 37.8318C192.119 37.8318 188.992 34.6618 188.992 29.7984C188.992 29.7549 188.992 29.6681 188.992 29.6247H207.274C207.404 23.0676 203.062 18.7687 196.461 18.7687C189.817 18.7687 185.041 23.415 185.041 29.9721C185.041 36.5725 189.774 41.3491 196.591 41.3491ZM189.513 26.6718C190.425 23.7624 192.9 21.9386 196.461 21.9386C199.892 21.9386 202.28 23.6322 203.018 26.6718H189.513Z" fill="white"/>
<path d="M221.627 41.3491C227.272 41.3491 231.093 38.3963 231.093 34.0105C231.093 30.1892 228.054 28.6693 224.84 28.1917L219.89 27.5403C218.891 27.41 216.764 27.0626 216.764 25.0217C216.764 23.1545 218.544 21.9821 221.063 21.9821C223.364 21.9821 225.014 22.9374 225.492 24.6309H229.574C229.096 20.9399 226.013 18.7687 221.063 18.7687C216.112 18.7687 212.812 21.3741 212.812 25.1954C212.812 28.843 215.721 30.2326 218.848 30.6668L223.798 31.3182C224.884 31.4919 227.055 31.8827 227.055 34.1842C227.055 36.5291 224.884 38.0489 221.671 38.0489C217.676 38.0489 214.983 35.5737 215.113 32.0564H210.988C210.901 37.6581 215.374 41.3491 221.627 41.3491Z" fill="white"/>
<path d="M246.037 41.3491C252.203 41.3491 256.85 37.5278 257.11 31.9696H252.985C252.811 35.4 249.902 37.8318 245.95 37.8318C241.564 37.8318 238.438 34.6618 238.438 29.7984C238.438 29.7549 238.438 29.6681 238.438 29.6247H256.719C256.85 23.0676 252.507 18.7687 245.907 18.7687C239.263 18.7687 234.486 23.415 234.486 29.9721C234.486 36.5725 239.22 41.3491 246.037 41.3491ZM238.959 26.6718C239.871 23.7624 242.346 21.9386 245.907 21.9386C249.337 21.9386 251.726 23.6322 252.464 26.6718H238.959Z" fill="white"/>
<path d="M271.422 41.3491C275.2 41.3491 278.37 39.4385 279.846 36.4422H279.89V40.9149H283.885V19.2029H279.89V23.6756H279.846C278.37 20.6793 275.157 18.7687 271.422 18.7687C265.212 18.7687 260.566 23.6322 260.566 30.0589C260.566 36.5291 265.256 41.3491 271.422 41.3491ZM264.691 30.0589C264.691 25.6297 267.948 22.3294 272.377 22.3294C276.85 22.3294 280.107 25.6297 280.107 30.0589C280.107 34.4881 276.85 37.7884 272.421 37.7884C267.992 37.7884 264.691 34.5316 264.691 30.0589Z" fill="white"/>
<path d="M289.636 40.9149H293.631V31.7524C293.631 26.281 296.019 22.7637 300.883 22.7637C301.056 22.7637 301.36 22.7637 301.534 22.8071V18.8121C301.36 18.7687 301.186 18.7687 301.013 18.7687C297.018 18.7687 294.586 21.0701 293.5 25.0651V19.2029H289.636V40.9149Z" fill="white"/>
<path d="M315.121 41.3491C322.025 41.3491 326.889 36.7462 326.498 29.9286H322.286C322.677 34.5316 319.68 37.8318 315.164 37.8318C310.561 37.8318 307.522 34.5316 307.522 30.0589C307.522 25.5428 310.648 22.3294 315.034 22.3294C317.943 22.3294 320.288 23.7624 321.374 25.9771H325.716C324.414 21.5478 320.332 18.7687 315.034 18.7687C308.216 18.7687 303.396 23.4585 303.396 30.0589C303.396 36.6159 308.173 41.3491 315.121 41.3491Z" fill="white"/>
<path d="M331.46 40.9149H335.455V29.1036C335.673 24.8915 338.148 22.3729 341.926 22.3729C345.486 22.3729 347.614 24.5875 347.614 28.4088V40.9149H351.653V27.714C351.653 22.0689 348.439 18.7687 343.272 18.7687C339.494 18.7687 336.715 20.5056 335.455 23.5453V9.64966H331.46V40.9149Z" fill="white"/>
<path d="M11.0721 50.2216L13.3169 48.9256C14.2452 48.3896 14.5421 47.5439 14.0901 46.761C13.7581 46.1859 13.1954 45.9473 12.5926 46.0552C12.9499 45.618 13.0129 45.0551 12.6969 44.5077C12.2569 43.7456 11.3829 43.5759 10.4753 44.0999L8.27212 45.3719L11.0721 50.2216ZM11.6636 48.67L10.9916 47.5061L11.8299 47.0221C12.2317 46.7901 12.6051 46.8609 12.8131 47.2211C13.0211 47.5814 12.9037 47.954 12.5019 48.186L11.6636 48.67ZM10.5276 46.7024L9.91556 45.6424L10.7469 45.1624C11.1141 44.9504 11.4518 45.0233 11.6398 45.3489C11.8318 45.6815 11.7261 46.0104 11.3589 46.2224L10.5276 46.7024ZM17.323 46.705C18.3622 46.105 18.812 45.0602 18.3504 44.1166L17.2349 44.7606C17.3835 45.1459 17.2008 45.5655 16.7782 45.8095C16.3002 46.0855 15.7737 45.9737 15.426 45.4354L18.1072 43.8874C17.5037 42.7301 16.3654 42.4544 15.2361 43.1064C14.086 43.7704 13.738 44.9597 14.346 46.0128C14.954 47.0659 16.159 47.377 17.323 46.705ZM15.1681 44.7807C15.1347 44.4028 15.287 44.0746 15.6542 43.8626C16.0145 43.6546 16.3639 43.6838 16.6507 43.9247L15.1681 44.7807ZM20.12 44.9978L21.2078 44.3698L19.7198 41.7925L20.6343 41.2645L20.1223 40.3777L19.2078 40.9057L18.6198 39.8873L17.6844 40.4273L17.9447 40.9421C18.1519 41.349 18.1075 41.6241 17.78 41.8408L17.5634 41.9936L18.0154 42.7765L18.632 42.4205L20.12 44.9978ZM24.1774 42.7477C24.7385 42.4237 24.9982 41.9135 24.945 41.3253L25.329 41.9904L26.4375 41.3504L24.4375 37.8863L23.329 38.5263L23.713 39.1914C23.2302 38.8512 22.6516 38.825 22.0974 39.145C21.1482 39.693 20.8757 40.885 21.4717 41.9173C22.0677 42.9496 23.2351 43.2917 24.1774 42.7477ZM22.6039 41.2543C22.3119 40.7486 22.4671 40.1694 22.9798 39.8734C23.4994 39.5734 24.0716 39.7326 24.3636 40.2383C24.6596 40.751 24.5074 41.3193 23.9878 41.6193C23.4751 41.9153 22.8999 41.767 22.6039 41.2543Z" fill="black"/>
</svg>
