<svg width="31" height="30" viewBox="0 0 31 30" fill="none" xmlns="http://www.w3.org/2000/svg">
<path d="M15.322 5.29034C15.0173 5.29034 14.721 5.38128 14.4654 5.55323C13.7676 6.02556 13.5812 6.97916 14.0538 7.67834C14.5104 8.35456 15.4983 8.55095 16.1818 8.09142C16.5199 7.86312 16.7509 7.51655 16.8276 7.11338C16.9042 6.71022 16.8218 6.30151 16.5934 5.9634C16.3088 5.54162 15.8336 5.29034 15.322 5.29034Z" fill="#F2FE53"/>
<path d="M7.38848 6.87659C7.08375 6.87659 6.78749 6.96753 6.53185 7.13948C5.8339 7.61181 5.65058 8.56689 6.12143 9.26607C6.57804 9.94062 7.56742 10.1372 8.24945 9.67625C8.94721 9.20537 9.13221 8.25175 8.66108 7.55114C8.37497 7.12935 7.89976 6.87659 7.38848 6.87659Z" fill="#F2FE53"/>
<path d="M23.0971 12.749C23.4367 12.5193 23.6676 12.1727 23.7458 11.7696C23.8239 11.3693 23.74 10.9606 23.5117 10.621C23.2255 10.1992 22.7503 9.94629 22.2376 9.94629C21.9329 9.94629 21.6381 10.0372 21.3853 10.2077C21.0457 10.4375 20.8148 10.7855 20.7366 11.1887C20.6585 11.5889 20.7424 11.9976 20.9707 12.3372C21.4283 13.0105 22.4194 13.2071 23.0971 12.749Z" fill="#F2FE53"/>
<path d="M24.7762 17.7356C24.4714 17.7356 24.1766 17.8265 23.9239 17.997C23.5843 18.2268 23.3534 18.5733 23.2752 18.9765C23.1971 19.3782 23.281 19.7869 23.5093 20.125C23.963 20.7997 24.9539 20.999 25.6388 20.5381C26.3366 20.0658 26.5216 19.1122 26.049 18.4101C25.7641 17.9871 25.2889 17.7356 24.7762 17.7356Z" fill="#F2FE53"/>
<path d="M27.1796 5.92745C24.7036 2.71013 21.1223 0.651519 17.0958 0.128662C16.4399 0.0420825 15.7754 0 15.1183 0C7.51658 0 1.04479 5.69193 0.0634661 13.242C-0.225545 15.4668 0.521525 16.9069 1.31312 18.4311C1.56731 18.9208 1.83309 19.4323 2.08029 20.0029C2.18283 20.2399 2.40388 20.4046 2.65952 20.4348C2.9137 20.465 3.16958 20.3552 3.32267 20.1487C4.39309 18.71 6.56587 18.3834 8.00628 19.4597L13.9956 23.9136C14.7122 24.4481 15.1787 25.2282 15.3089 26.1137C15.4404 26.9978 15.2179 27.8803 14.682 28.5969C14.5217 28.8136 14.4941 29.1026 14.6126 29.3452C14.7297 29.588 14.9737 29.744 15.2438 29.7513L15.6815 29.7571C23.3928 29.7571 29.2294 24.6949 30.2076 17.1602C30.732 13.1339 29.6572 9.1437 27.1794 5.92793L27.1796 5.92745ZM9.05704 10.8754C8.56294 11.2092 7.98662 11.3852 7.39145 11.3852C6.39892 11.3852 5.47864 10.8955 4.92557 10.0749C4.00653 8.71425 4.36617 6.86076 5.72413 5.94196C7.0461 5.04905 8.97315 5.43046 9.85733 6.74368C10.7761 8.10453 10.4165 9.95813 9.05704 10.8754ZM18.2462 7.3865C18.096 8.16815 17.6496 8.84412 16.9893 9.28767C16.4952 9.61997 15.9203 9.79773 15.328 9.79773C14.3355 9.79773 13.4138 9.30653 12.8593 8.48591C11.9405 7.1279 12.2986 5.27292 13.6595 4.35562C14.9815 3.46562 16.9056 3.84411 17.7913 5.15442C18.236 5.81466 18.3978 6.60652 18.2462 7.3865ZM19.7747 13.1463C19.3283 12.4875 19.1679 11.6945 19.3195 10.9129C19.4712 10.1327 19.9176 9.45818 20.5764 9.01314C21.8955 8.12457 23.8211 8.50164 24.7082 9.81486C25.1546 10.4737 25.315 11.2667 25.1633 12.0469C25.0117 12.8271 24.5652 13.5031 23.905 13.9466C23.4109 14.2804 22.8375 14.4581 22.2423 14.4581C21.2527 14.4567 20.3295 13.9669 19.7748 13.1463L19.7747 13.1463ZM26.4459 21.7343C25.9518 22.0666 25.3769 22.2444 24.7832 22.2444C23.7892 22.2444 22.8675 21.7532 22.313 20.9326C21.868 20.2737 21.7076 19.4808 21.8593 18.7005C22.0109 17.9203 22.4573 17.2443 23.1176 16.8008C24.4322 15.9122 26.3608 16.2893 27.2479 17.6025C28.1649 18.9622 27.8053 20.8155 26.4459 21.7342L26.4459 21.7343Z" fill="#F2FE53"/>
</svg>
