<svg width="147" height="48" viewBox="0 0 147 48" fill="none" xmlns="http://www.w3.org/2000/svg">
<path d="M21.6717 0.0784912V22.271H16.2733V13.0532H7.69022V22.2322H2.29181V0.0784912H7.69022V8.94775H16.2733V0.0784912H21.6717Z" fill="#285B49"/>
<path d="M51.6926 0.0784912L43.9639 15.1059V22.2322H38.5655V15.1059L30.8757 0.0784912H37.012L41.2841 10.1097L45.5175 0.0784912H51.6926Z" fill="#285B49"/>
<path d="M79.2685 16.9262C78.2199 18.6303 76.7829 19.9084 74.9187 20.8767C73.0546 21.8062 70.9962 22.271 68.6659 22.271H60.8596V0.0784912H68.6659C70.9962 0.0784912 73.0933 0.543255 74.9187 1.47278C76.7441 2.40232 78.1811 3.71915 79.2297 5.38456C80.2783 7.08869 80.7831 8.98648 80.7831 11.1554C80.8609 13.3242 80.3172 15.222 79.2685 16.9262ZM73.5595 16.2678C74.7245 14.9897 75.346 13.3242 75.346 11.1941C75.346 9.06394 74.7634 7.35981 73.5595 6.12044C72.3942 4.84233 70.7631 4.22265 68.6659 4.22265H66.258V18.2043H68.6659C70.7631 18.1656 72.3942 17.5071 73.5595 16.2678Z" fill="#285B49"/>
<path d="M101.676 22.271L96.6663 13.6341H96.045V22.271H90.6466V0.0784912H99.4238C101.172 0.0784912 102.647 0.388334 103.89 1.00802C105.133 1.6277 106.065 2.47978 106.686 3.48677C107.308 4.53248 107.618 5.61693 107.618 6.81758C107.618 8.09568 107.23 9.37379 106.453 10.5744C105.677 11.8138 104.395 12.6659 102.608 13.1693L108.046 22.1936H101.676V22.271ZM96.045 9.52871H99.385C100.201 9.52871 100.861 9.29632 101.327 8.79283C101.793 8.28934 102.026 7.66964 102.026 6.8563C102.026 6.0817 101.793 5.42328 101.288 4.91979C100.783 4.41629 100.162 4.14519 99.3461 4.14519H96.0061V9.52871H96.045Z" fill="#285B49"/>
<path d="M130.999 18.5131H122.998L121.755 22.2313H116.007L123.736 0H130.338L138.028 22.2313H132.241L130.999 18.5131ZM129.639 14.4077L126.998 6.50671L124.357 14.4077H129.639Z" fill="#285B49"/>
<path d="M138.961 0.5802V1.74212H137.251V6.85452H135.737V1.74212H134.028V0.5802H138.961Z" fill="#285B49"/>
<path d="M147 0.5802V6.85452H145.484V3.33006L144.009 6.85452H142.883L141.406 3.33006V6.85452H139.892V0.5802H141.64L143.465 4.918L145.252 0.5802H147Z" fill="#285B49"/>
<path d="M11.7289 44.0732C11.2629 44.9253 10.5638 45.5836 9.6317 46.0872C8.69959 46.5907 7.53447 46.8617 6.17516 46.8617C5.01003 46.8617 3.96142 46.6682 3.02932 46.2808C2.09722 45.8936 1.35932 45.3513 0.81559 44.6541C0.271865 43.9569 0 43.1049 0 42.1754H2.01956C2.09723 43.0662 2.4856 43.7634 3.14584 44.3443C3.80608 44.9253 4.81585 45.1964 6.13631 45.1964C7.49563 45.1964 8.5831 44.8478 9.39867 44.1506C10.2143 43.4535 10.6026 42.5627 10.6026 41.517C10.6026 40.7037 10.4085 40.084 9.98123 39.6192C9.55402 39.1545 9.04914 38.8059 8.42774 38.6122C7.80634 38.3799 6.95192 38.1862 5.9033 37.9538C4.62167 37.6827 3.61188 37.3729 2.83514 37.1018C2.05838 36.7918 1.39815 36.2884 0.854429 35.5912C0.310705 34.8942 0.0388399 33.9259 0.0388399 32.7252C0.0388399 31.1373 0.582557 29.8979 1.67001 28.9296C2.75746 27.9614 4.27212 27.4966 6.214 27.4966C7.88401 27.4966 9.20448 27.9226 10.2143 28.736C11.224 29.5493 11.8843 30.6725 12.0785 32.028H9.90356C9.82588 31.2534 9.43752 30.595 8.73843 30.0141C8.03936 29.4331 7.10727 29.1621 5.9033 29.1621C4.6605 29.1621 3.68956 29.4718 2.91281 30.0528C2.1749 30.6725 1.78653 31.5246 1.78653 32.6864C1.78653 33.4998 1.98071 34.1195 2.40793 34.5842C2.83514 35.0491 3.37885 35.3976 4.00026 35.63C4.6605 35.8623 5.47609 36.0947 6.56354 36.2884C7.84517 36.5983 8.85494 36.8693 9.6317 37.1404C10.4084 37.4116 11.0298 37.915 11.5736 38.5736C12.1173 39.2319 12.3892 40.2001 12.3892 41.3621C12.428 42.3691 12.195 43.2211 11.7289 44.0732Z" fill="#285B49"/>
<path d="M32.7791 27.7297V29.279H27.8079V46.6302H25.9048V29.279H20.9336V27.7297H32.7791Z" fill="#285B49"/>
<path d="M43.614 27.7279V40.2765C43.614 41.942 44.08 43.2201 44.9733 44.0333C45.8665 44.8467 47.1093 45.2728 48.7016 45.2728C50.294 45.2728 51.5368 44.8467 52.4301 44.0333C53.3233 43.2201 53.7894 41.9806 53.7894 40.2765V27.6892H55.7312V40.2765C55.7312 42.4454 55.071 44.0721 53.7894 45.1565C52.4689 46.2797 50.7989 46.822 48.7405 46.822C46.6821 46.822 45.0121 46.2797 43.6917 45.1565C42.3711 44.0333 41.7109 42.4067 41.7109 40.2765V27.6892H43.614V27.7279Z" fill="#285B49"/>
<path d="M78.335 44.2289C76.6261 45.8556 74.2182 46.6688 71.1112 46.6688H65.2856V27.7297H71.1112C73.1308 27.7297 74.9173 28.117 76.3543 28.8529C77.8301 29.6276 78.9564 30.712 79.7332 32.145C80.5099 33.5781 80.8983 35.2822 80.8983 37.2961C80.9371 40.3172 80.0827 42.6022 78.335 44.2289ZM76.9757 43.1057C78.2962 41.7114 78.9564 39.7749 78.9564 37.2961C78.9564 34.8174 78.2962 32.8809 76.9757 31.4866C75.6553 30.0922 73.7133 29.3951 71.1501 29.3951H67.2275V45.1584H71.1501C73.6746 45.1584 75.6164 44.5 76.9757 43.1057Z" fill="#285B49"/>
<path d="M91.5784 27.7297V46.6688H89.6366V27.7297H91.5784Z" fill="#285B49"/>
<path d="M114.803 28.7741C116.279 29.5874 117.444 30.7492 118.299 32.221C119.153 33.6928 119.58 35.3583 119.58 37.2173C119.58 39.0763 119.153 40.7418 118.299 42.2135C117.444 43.6852 116.279 44.8471 114.803 45.6605C113.328 46.4738 111.696 46.8998 109.91 46.8998C108.123 46.8998 106.492 46.4738 105.016 45.6605C103.54 44.8471 102.375 43.6852 101.521 42.2135C100.667 40.7418 100.239 39.0763 100.239 37.2173C100.239 35.3583 100.667 33.6928 101.521 32.221C102.375 30.7492 103.54 29.5874 105.016 28.7741C106.492 27.9607 108.123 27.5347 109.91 27.5347C111.696 27.5347 113.328 27.922 114.803 28.7741ZM105.987 30.2071C104.822 30.8655 103.89 31.795 103.23 32.9956C102.57 34.1963 102.22 35.5906 102.22 37.1785C102.22 38.7665 102.57 40.1607 103.23 41.3614C103.89 42.562 104.822 43.4916 105.987 44.1887C107.152 44.8472 108.473 45.1957 109.91 45.1957C111.347 45.1957 112.667 44.8472 113.832 44.1887C114.998 43.5303 115.93 42.6008 116.59 41.3614C117.25 40.1607 117.6 38.7665 117.6 37.1785C117.6 35.5906 117.25 34.1963 116.59 32.9956C115.93 31.795 114.998 30.8655 113.832 30.2071C112.667 29.5487 111.347 29.2001 109.91 29.2001C108.473 29.2001 107.152 29.5487 105.987 30.2071Z" fill="#285B49"/>
<path d="M129.717 45.1196H139.31V46.6688H127.543V45.1196L137.135 29.279H127.543V27.7297H139.31V29.279L129.717 45.1196Z" fill="#285B49"/>
</svg>
