<svg width="194" height="30" viewBox="0 0 194 30" fill="none" xmlns="http://www.w3.org/2000/svg">
<rect x="0.522339" y="0.0969238" width="30.2738" height="29.6296" rx="14.8148" fill="white"/>
<mask id="mask0_1_590" style="mask-type:alpha" maskUnits="userSpaceOnUse" x="0" y="0" width="31" height="30">
<rect x="0.522339" y="0.0969238" width="30.2738" height="29.6296" rx="14.8148" fill="#9EA271"/>
</mask>
<g mask="url(#mask0_1_590)">
<mask id="path-3-inside-1_1_590" fill="white">
<path d="M5.38379 30.5276C5.54754 27.8945 5.69264 25.2594 5.8898 22.6286C6.08552 20.0171 6.3646 17.4126 6.87009 14.8424C7.12147 13.5643 7.41511 12.2954 7.71077 11.0273C7.97184 9.90763 8.23131 8.78251 8.63006 7.70346C8.82311 7.18094 9.05173 6.67163 9.32936 6.18972C9.39937 6.06821 9.47248 5.94852 9.54882 5.83114C9.6173 5.72564 9.68483 5.59819 9.77425 5.5097C9.88213 5.40305 10.0608 5.41642 10.1487 5.54288C10.218 5.6426 10.2582 5.77633 10.3073 5.88628C10.4172 6.13194 10.5271 6.37776 10.637 6.62342C10.8829 7.17351 11.1289 7.7236 11.3749 8.27353C11.6264 8.836 11.8556 9.43067 12.2728 9.89045C13.0649 10.7638 14.293 10.5997 15.3437 10.5305C16.0004 10.4873 16.657 10.4442 17.3137 10.4009C17.61 10.3814 17.9364 10.3951 18.2229 10.3065C18.4801 10.2271 18.6648 10.0418 18.7939 9.80725C18.9269 9.56555 19.0234 9.30107 19.1398 9.05079C19.2621 8.7878 19.3901 8.52744 19.5237 8.27023C19.7982 7.7416 20.096 7.22568 20.4162 6.72446C20.7317 6.23033 21.0682 5.74958 21.4268 5.28682C21.4746 5.22508 21.5228 5.1635 21.5715 5.10241C21.6001 5.06626 21.6391 4.98652 21.6806 4.96935C21.7444 4.9431 21.7524 4.99973 21.7652 5.0514C21.8447 5.3702 21.9217 5.68982 21.9976 6.0096C22.6021 8.55386 23.1086 11.1216 23.5214 13.7051C23.9377 16.3103 24.2744 18.9281 24.6262 21.5428C24.9795 24.1693 25.3328 26.7957 25.686 29.4221C25.7727 30.0657 25.8592 30.7093 25.9457 31.3528C25.9597 31.4559 26.0882 31.5102 26.177 31.4864C26.2858 31.4572 26.322 31.353 26.3083 31.2512C25.9493 28.5812 25.59 25.9113 25.231 23.2414C24.8729 20.5799 24.5306 17.9156 24.1381 15.2591C23.7498 12.6315 23.2836 10.0174 22.7088 7.42528C22.5664 6.7834 22.4181 6.143 22.2635 5.50409C22.2249 5.34444 22.1859 5.1848 22.1465 5.02532C22.1134 4.8911 22.0827 4.76447 21.971 4.67499C21.7733 4.51633 21.5186 4.57131 21.3641 4.75869C20.6107 5.67215 19.9544 6.68252 19.3867 7.72443C19.0986 8.25306 18.8361 8.79523 18.5953 9.34779C18.5006 9.56506 18.3979 9.82904 18.1643 9.92397C18.0434 9.973 17.9084 9.97911 17.7802 9.98786C17.6074 9.99958 17.4346 10.0105 17.2618 10.0219C16.6052 10.0651 15.9485 10.1084 15.2919 10.1515C14.729 10.1886 14.1415 10.2646 13.5808 10.1675C13.0434 10.0744 12.6217 9.79569 12.32 9.33393C12.1279 9.03989 11.9842 8.71714 11.8409 8.39669C11.6359 7.93822 11.4309 7.47976 11.2259 7.02146C11.0036 6.52436 10.7814 6.02727 10.5591 5.53017C10.4648 5.31935 10.3398 5.13279 10.1 5.07385C9.56025 4.94145 9.27869 5.53182 9.04931 5.92012C8.46595 6.90771 8.09142 8.00971 7.79208 9.11584C7.46792 10.3136 7.20218 11.5302 6.93097 12.7413C6.64066 14.0376 6.37453 15.3396 6.16861 16.6528C5.96391 17.9581 5.80933 19.2712 5.68514 20.5869C5.43428 23.2443 5.2948 25.9122 5.12914 28.5761C5.08868 29.2266 5.04823 29.8771 5.00778 30.5276C4.9925 30.7733 5.36857 30.7724 5.38379 30.5276Z"/>
</mask>
<path d="M5.38379 30.5276C5.54754 27.8945 5.69264 25.2594 5.8898 22.6286C6.08552 20.0171 6.3646 17.4126 6.87009 14.8424C7.12147 13.5643 7.41511 12.2954 7.71077 11.0273C7.97184 9.90763 8.23131 8.78251 8.63006 7.70346C8.82311 7.18094 9.05173 6.67163 9.32936 6.18972C9.39937 6.06821 9.47248 5.94852 9.54882 5.83114C9.6173 5.72564 9.68483 5.59819 9.77425 5.5097C9.88213 5.40305 10.0608 5.41642 10.1487 5.54288C10.218 5.6426 10.2582 5.77633 10.3073 5.88628C10.4172 6.13194 10.5271 6.37776 10.637 6.62342C10.8829 7.17351 11.1289 7.7236 11.3749 8.27353C11.6264 8.836 11.8556 9.43067 12.2728 9.89045C13.0649 10.7638 14.293 10.5997 15.3437 10.5305C16.0004 10.4873 16.657 10.4442 17.3137 10.4009C17.61 10.3814 17.9364 10.3951 18.2229 10.3065C18.4801 10.2271 18.6648 10.0418 18.7939 9.80725C18.9269 9.56555 19.0234 9.30107 19.1398 9.05079C19.2621 8.7878 19.3901 8.52744 19.5237 8.27023C19.7982 7.7416 20.096 7.22568 20.4162 6.72446C20.7317 6.23033 21.0682 5.74958 21.4268 5.28682C21.4746 5.22508 21.5228 5.1635 21.5715 5.10241C21.6001 5.06626 21.6391 4.98652 21.6806 4.96935C21.7444 4.9431 21.7524 4.99973 21.7652 5.0514C21.8447 5.3702 21.9217 5.68982 21.9976 6.0096C22.6021 8.55386 23.1086 11.1216 23.5214 13.7051C23.9377 16.3103 24.2744 18.9281 24.6262 21.5428C24.9795 24.1693 25.3328 26.7957 25.686 29.4221C25.7727 30.0657 25.8592 30.7093 25.9457 31.3528C25.9597 31.4559 26.0882 31.5102 26.177 31.4864C26.2858 31.4572 26.322 31.353 26.3083 31.2512C25.9493 28.5812 25.59 25.9113 25.231 23.2414C24.8729 20.5799 24.5306 17.9156 24.1381 15.2591C23.7498 12.6315 23.2836 10.0174 22.7088 7.42528C22.5664 6.7834 22.4181 6.143 22.2635 5.50409C22.2249 5.34444 22.1859 5.1848 22.1465 5.02532C22.1134 4.8911 22.0827 4.76447 21.971 4.67499C21.7733 4.51633 21.5186 4.57131 21.3641 4.75869C20.6107 5.67215 19.9544 6.68252 19.3867 7.72443C19.0986 8.25306 18.8361 8.79523 18.5953 9.34779C18.5006 9.56506 18.3979 9.82904 18.1643 9.92397C18.0434 9.973 17.9084 9.97911 17.7802 9.98786C17.6074 9.99958 17.4346 10.0105 17.2618 10.0219C16.6052 10.0651 15.9485 10.1084 15.2919 10.1515C14.729 10.1886 14.1415 10.2646 13.5808 10.1675C13.0434 10.0744 12.6217 9.79569 12.32 9.33393C12.1279 9.03989 11.9842 8.71714 11.8409 8.39669C11.6359 7.93822 11.4309 7.47976 11.2259 7.02146C11.0036 6.52436 10.7814 6.02727 10.5591 5.53017C10.4648 5.31935 10.3398 5.13279 10.1 5.07385C9.56025 4.94145 9.27869 5.53182 9.04931 5.92012C8.46595 6.90771 8.09142 8.00971 7.79208 9.11584C7.46792 10.3136 7.20218 11.5302 6.93097 12.7413C6.64066 14.0376 6.37453 15.3396 6.16861 16.6528C5.96391 17.9581 5.80933 19.2712 5.68514 20.5869C5.43428 23.2443 5.2948 25.9122 5.12914 28.5761C5.08868 29.2266 5.04823 29.8771 5.00778 30.5276C4.9925 30.7733 5.36857 30.7724 5.38379 30.5276Z" fill="#100F0D"/>
<path d="M5.38379 30.5276L3.38765 30.4035L3.38765 30.4034L5.38379 30.5276ZM5.8898 22.6286L3.89539 22.4792L3.89539 22.4792L5.8898 22.6286ZM6.87009 14.8424L8.8325 15.2284L8.8325 15.2284L6.87009 14.8424ZM7.71077 11.0273L5.76301 10.5732L5.76302 10.5731L7.71077 11.0273ZM8.63006 7.70346L10.5061 8.3966L10.5061 8.39672L8.63006 7.70346ZM9.32936 6.18972L7.59636 5.19136L7.59642 5.19125L9.32936 6.18972ZM9.54882 5.83114L11.2263 6.92014L11.2254 6.92155L9.54882 5.83114ZM9.77425 5.5097L8.36749 4.08808L8.36817 4.0874L9.77425 5.5097ZM10.1487 5.54288L11.7908 4.40112L11.791 4.40137L10.1487 5.54288ZM10.3073 5.88628L8.48166 6.70297L8.48144 6.70249L10.3073 5.88628ZM10.637 6.62342L12.4626 5.80673L12.4628 5.80708L10.637 6.62342ZM11.3749 8.27353L13.2006 7.45698L13.2006 7.45706L11.3749 8.27353ZM12.2728 9.89046L13.754 8.54657L13.7542 8.54685L12.2728 9.89046ZM15.3437 10.5305L15.4752 12.5262L15.4751 12.5262L15.3437 10.5305ZM17.3137 10.4009L17.1822 8.40525L17.1824 8.40523L17.3137 10.4009ZM18.2229 10.3065L17.6317 8.39585L17.6329 8.3955L18.2229 10.3065ZM18.7939 9.80725L20.5462 10.7714L20.5461 10.7715L18.7939 9.80725ZM19.1398 9.05079L17.3263 8.20757L17.3263 8.20749L19.1398 9.05079ZM19.5237 8.27023L21.2988 9.19167L21.2986 9.19207L19.5237 8.27023ZM20.4162 6.72446L22.1018 7.80084L22.1017 7.80094L20.4162 6.72446ZM21.4268 5.28682L19.8458 4.06178L19.8463 4.06115L21.4268 5.28682ZM21.5715 5.10242L23.1408 6.34239L23.1354 6.34914L21.5715 5.10242ZM21.6806 4.96935L20.9169 3.12091L20.9196 3.11981L21.6806 4.96935ZM21.7652 5.0514L19.8247 5.53555L19.8241 5.53311L21.7652 5.0514ZM21.9976 6.0096L20.0518 6.47192L20.0518 6.47186L21.9976 6.0096ZM23.5214 13.7051L21.5464 14.0207L21.5464 14.0207L23.5214 13.7051ZM24.6262 21.5428L22.644 21.8095L22.644 21.8095L24.6262 21.5428ZM25.686 29.4221L23.7039 29.6891L23.7038 29.6887L25.686 29.4221ZM25.9457 31.3528L23.9638 31.6212L23.9635 31.6193L25.9457 31.3528ZM26.177 31.4864L26.6951 33.4181L26.6947 33.4182L26.177 31.4864ZM26.3083 31.2512L28.2905 30.9846L28.2906 30.9858L26.3083 31.2512ZM25.231 23.2414L27.2131 22.9747L27.2131 22.9748L25.231 23.2414ZM24.1381 15.2591L26.1166 14.9667L26.1166 14.9668L24.1381 15.2591ZM22.7088 7.42528L24.6613 6.99224L24.6614 6.99231L22.7088 7.42528ZM22.2635 5.50409L24.2074 5.03368L24.2075 5.03391L22.2635 5.50409ZM22.1465 5.02532L20.205 5.50551L20.2047 5.50438L22.1465 5.02532ZM21.971 4.67499L20.7205 6.23579L20.7193 6.23485L21.971 4.67499ZM21.3641 4.75869L22.9071 6.03118L22.907 6.03128L21.3641 4.75869ZM19.3867 7.72443L21.143 8.68129L21.1429 8.68145L19.3867 7.72443ZM18.5953 9.34779L16.7618 8.54888L16.7619 8.54869L18.5953 9.34779ZM18.1643 9.92397L18.9174 11.7768L18.9157 11.7774L18.1643 9.92397ZM17.7802 9.98786L17.9164 11.9832L17.9156 11.9833L17.7802 9.98786ZM17.2618 10.0219L17.3934 12.0175L17.3933 12.0175L17.2618 10.0219ZM15.2919 10.1515L15.1602 8.15581L15.1609 8.15576L15.2919 10.1515ZM13.5808 10.1675L13.2396 12.1382L13.2394 12.1381L13.5808 10.1675ZM12.32 9.33393L10.6457 10.428L10.6456 10.4278L12.32 9.33393ZM11.8409 8.39669L10.0151 9.21322L10.0151 9.21308L11.8409 8.39669ZM11.2259 7.02146L9.40022 7.83804L9.40013 7.83784L11.2259 7.02146ZM10.5591 5.53017L12.3848 4.71348L12.3849 4.71379L10.5591 5.53017ZM10.1 5.07385L10.5765 3.13145L10.5773 3.13164L10.1 5.07385ZM9.04931 5.92012L7.3273 4.90294L7.32733 4.90289L9.04931 5.92012ZM7.79208 9.11584L9.72263 9.63829L9.72263 9.63832L7.79208 9.11584ZM6.93097 12.7413L8.88263 13.1783L8.88263 13.1784L6.93097 12.7413ZM6.16861 16.6528L8.14446 16.9626L8.14446 16.9626L6.16861 16.6528ZM5.68514 20.5869L7.67629 20.7748L7.67629 20.7748L5.68514 20.5869ZM5.12914 28.5761L7.12528 28.7003L7.12528 28.7003L5.12914 28.5761ZM5.00778 30.5276L3.01163 30.4035L3.01163 30.4034L5.00778 30.5276ZM3.38765 30.4034C3.55022 27.7893 3.69697 25.1268 3.89539 22.4792L7.88421 22.7781C7.68831 25.392 7.54486 27.9997 7.37994 30.6517L3.38765 30.4034ZM3.89539 22.4792C4.09397 19.8295 4.3805 17.1369 4.90769 14.4565L8.8325 15.2284C8.3487 17.6882 8.07707 20.2046 7.88421 22.7781L3.89539 22.4792ZM4.90769 14.4565C5.16669 13.1395 5.46794 11.8387 5.76301 10.5732L9.65853 11.4814C9.36229 12.752 9.07625 13.989 8.8325 15.2284L4.90769 14.4565ZM5.76302 10.5731C6.01814 9.47896 6.30415 8.22769 6.75406 7.01021L10.5061 8.39672C10.1585 9.33734 9.92553 10.3363 9.65853 11.4814L5.76302 10.5731ZM6.75401 7.01033C6.97806 6.40392 7.25207 5.78898 7.59636 5.19136L11.0623 7.18808C10.8514 7.55427 10.6682 7.95796 10.5061 8.3966L6.75401 7.01033ZM7.59642 5.19125C7.68346 5.04018 7.7753 4.88974 7.87221 4.74073L11.2254 6.92155C11.1697 7.00729 11.1153 7.09624 11.0623 7.18819L7.59642 5.19125ZM7.8713 4.74213C7.87095 4.74267 7.87255 4.74021 7.87734 4.73253C7.88254 4.72419 7.88802 4.71529 7.89772 4.69955C7.91384 4.67339 7.94435 4.62377 7.97882 4.57096C8.0426 4.47323 8.17277 4.28076 8.36749 4.08808L11.181 6.93132C11.2102 6.90241 11.2342 6.87623 11.2531 6.85444C11.272 6.83265 11.2869 6.81396 11.2978 6.79972C11.3087 6.78547 11.3167 6.77435 11.3215 6.76752C11.3262 6.7607 11.3287 6.75684 11.3285 6.75712C11.3283 6.75747 11.3264 6.76041 11.3219 6.76756C11.3172 6.77514 11.3118 6.78391 11.303 6.79815C11.2953 6.81058 11.2836 6.82964 11.2717 6.8488C11.2593 6.86863 11.2438 6.89322 11.2263 6.92014L7.8713 4.74213ZM8.36817 4.0874C9.33589 3.13072 10.9757 3.2289 11.7908 4.40112L8.50665 6.68464C9.14586 7.60395 10.4284 7.67538 11.1803 6.932L8.36817 4.0874ZM11.791 4.40137C11.9499 4.62998 12.0423 4.84695 12.0818 4.94179C12.1024 4.99117 12.1239 5.04587 12.1299 5.06105C12.1405 5.0877 12.1392 5.08349 12.1332 5.07006L8.48144 6.70249C8.46539 6.66658 8.45165 6.63408 8.44068 6.6075C8.4298 6.58116 8.42019 6.55714 8.41316 6.53947C8.40967 6.53069 8.40612 6.52173 8.40348 6.51506C8.40059 6.50779 8.39835 6.50214 8.39628 6.49696C8.3921 6.48648 8.39014 6.4817 8.38931 6.4797C8.38855 6.47789 8.38997 6.48137 8.39315 6.48842C8.39635 6.49551 8.40215 6.50805 8.41048 6.52455C8.41881 6.54105 8.43056 6.56327 8.44595 6.58965C8.46134 6.61602 8.48134 6.64823 8.50648 6.6844L11.791 4.40137ZM12.133 5.06959C12.188 5.19258 12.243 5.31559 12.2979 5.43844C12.3529 5.56133 12.4078 5.68406 12.4626 5.80673L8.81132 7.44011C8.7563 7.31712 8.70129 7.19411 8.64636 7.07126C8.59141 6.94837 8.53653 6.82564 8.48166 6.70297L12.133 5.06959ZM12.4628 5.80708C12.7087 6.35714 12.9547 6.90715 13.2006 7.45698L9.54913 9.09008C9.30314 8.54005 9.05713 7.98988 8.81117 7.43977L12.4628 5.80708ZM13.2006 7.45706C13.5237 8.17963 13.6077 8.38536 13.754 8.54657L10.7916 11.2343C10.1035 10.476 9.72904 9.49238 9.5491 9.09L13.2006 7.45706ZM13.7542 8.54685C13.7553 8.54803 13.752 8.5444 13.7453 8.53965C13.7389 8.53513 13.7362 8.53437 13.741 8.53649C13.7531 8.54178 13.8067 8.56228 13.9314 8.57608C14.059 8.59021 14.2238 8.59361 14.4488 8.58424C14.6932 8.57406 14.898 8.55554 15.2123 8.53484L15.4751 12.5262C15.0649 12.5532 14.2536 12.6362 13.4912 12.5518C12.6509 12.4588 11.6203 12.148 10.7913 11.2341L13.7542 8.54685ZM15.2123 8.53485C15.5407 8.51321 15.8692 8.49162 16.1975 8.47003C16.5258 8.44844 16.854 8.42687 17.1822 8.40525L17.4451 12.3966C17.1167 12.4182 16.7882 12.4398 16.4599 12.4614C16.1316 12.483 15.8034 12.5046 15.4752 12.5262L15.2123 8.53485ZM17.1824 8.40523C17.2902 8.39815 17.3955 8.39441 17.4665 8.39178C17.5475 8.38879 17.5971 8.38681 17.6415 8.3839C17.736 8.37773 17.7086 8.37207 17.6317 8.39585L18.8141 12.2171C18.4507 12.3296 18.1168 12.3614 17.9023 12.3754C17.7923 12.3826 17.6868 12.3864 17.6144 12.389C17.5319 12.3921 17.4853 12.394 17.4449 12.3966L17.1824 8.40523ZM17.6329 8.3955C17.2601 8.5106 17.0853 8.76371 17.0417 8.84302L20.5461 10.7715C20.2443 11.32 19.7001 11.9436 18.8129 12.2175L17.6329 8.3955ZM17.0417 8.84308C17.1442 8.65679 17.1012 8.69163 17.3263 8.20757L20.9534 9.89401C20.9457 9.91051 20.7096 10.4743 20.5462 10.7714L17.0417 8.84308ZM17.3263 8.20749C17.4608 7.91815 17.6018 7.63161 17.7489 7.34839L21.2986 9.19207C21.1785 9.42328 21.0634 9.65745 20.9533 9.89409L17.3263 8.20749ZM17.7487 7.34879C18.0506 6.76712 18.3784 6.19948 18.7306 5.64797L22.1017 7.80094C21.8137 8.25189 21.5457 8.71607 21.2988 9.19167L17.7487 7.34879ZM18.7305 5.64808C19.0764 5.10643 19.4476 4.57573 19.8458 4.06178L23.0077 6.51187C22.6887 6.92343 22.387 7.35423 22.1018 7.80084L18.7305 5.64808ZM19.8463 4.06115C19.8978 3.99475 19.9518 3.92578 20.0077 3.85569L23.1354 6.34914C23.0939 6.40122 23.0514 6.45541 23.0072 6.5125L19.8463 4.06115ZM20.0023 3.86245C19.9428 3.93771 19.9025 4.00262 19.9167 3.9806C19.918 3.9786 19.9181 3.97851 19.9218 3.97277C19.9245 3.96856 19.9289 3.96185 19.9339 3.9542C19.9436 3.9393 19.9596 3.91505 19.9794 3.88665C20.0129 3.83842 20.0892 3.73134 20.2008 3.61408C20.2962 3.51376 20.5343 3.27901 20.9169 3.12091L22.4444 6.81778C22.6368 6.73828 22.7819 6.64222 22.8793 6.56786C22.9777 6.49263 23.051 6.42138 23.0994 6.37052C23.191 6.27417 23.248 6.1925 23.263 6.17088C23.2778 6.14965 23.2941 6.12426 23.2728 6.15697C23.2705 6.1606 23.2145 6.24904 23.1408 6.34238L20.0023 3.86245ZM20.9196 3.11981C21.158 3.02171 21.6246 2.88185 22.194 3.02106C22.8139 3.17264 23.2016 3.56527 23.4057 3.87114C23.5826 4.13631 23.6547 4.38155 23.6756 4.45343C23.6939 4.5161 23.7219 4.63249 23.7063 4.56969L19.8241 5.53311C19.8021 5.44447 19.8243 5.53441 19.8354 5.57274C19.8493 5.62029 19.913 5.84333 20.0783 6.09117C20.2708 6.3797 20.6438 6.75987 21.2439 6.9066C21.7934 7.04096 22.2352 6.90386 22.4417 6.81889L20.9196 3.11981ZM23.7057 4.56725C23.7878 4.89635 23.8667 5.22408 23.9435 5.54735L20.0518 6.47186C19.9767 6.15556 19.9017 5.84405 19.8247 5.53555L23.7057 4.56725ZM23.9435 5.54729C24.5599 8.14153 25.0759 10.7582 25.4963 13.3896L21.5464 14.0207C21.1413 11.4849 20.6444 8.96619 20.0518 6.47192L23.9435 5.54729ZM25.4963 13.3895C25.9177 16.0261 26.2588 18.6779 26.6083 21.2761L22.644 21.8095C22.29 19.1782 21.9578 16.5945 21.5464 14.0207L25.4963 13.3895ZM26.6083 21.2761C26.9617 23.9026 27.3149 26.5291 27.6681 29.1556L23.7038 29.6887C23.3506 27.0623 22.9974 24.4359 22.644 21.8095L26.6083 21.2761ZM27.6681 29.1552C27.7548 29.799 27.8414 30.4428 27.9279 31.0864L23.9635 31.6193C23.877 30.9757 23.7905 30.3324 23.7039 29.6891L27.6681 29.1552ZM27.9276 31.0845C27.8235 30.3152 27.3096 29.8773 26.9586 29.6941C26.6247 29.5199 26.1655 29.4189 25.6593 29.5546L26.6947 33.4182C26.0997 33.5777 25.5319 33.4615 25.108 33.2403C24.667 33.0102 24.0819 32.4935 23.9638 31.6212L27.9276 31.0845ZM25.6589 29.5547C25.1302 29.6964 24.7162 30.0629 24.4951 30.5109C24.3006 30.905 24.2934 31.273 24.326 31.5166L28.2906 30.9858C28.3369 31.3312 28.3184 31.8022 28.082 32.2812C27.8191 32.814 27.3325 33.2472 26.6951 33.4181L25.6589 29.5547ZM24.3262 31.5177C23.9659 28.8386 23.6091 26.1872 23.2488 23.508L27.2131 22.9748C27.5709 25.6354 27.9327 28.3239 28.2905 30.9846L24.3262 31.5177ZM23.2488 23.5081C22.8886 20.8309 22.5495 18.1909 22.1595 15.5514L26.1166 14.9668C26.5116 17.6403 26.8572 20.329 27.2131 22.9747L23.2488 23.5081ZM22.1595 15.5515C21.777 12.9628 21.319 10.3964 20.7562 7.85825L24.6614 6.99231C25.2481 9.63846 25.7225 12.3002 26.1166 14.9667L22.1595 15.5515ZM20.7562 7.85832C20.6166 7.22869 20.4711 6.60067 20.3196 5.97427L24.2075 5.03391C24.365 5.68533 24.5163 6.33811 24.6613 6.99224L20.7562 7.85832ZM20.3196 5.9745C20.2816 5.8173 20.2435 5.66101 20.205 5.50551L24.088 4.54512C24.1284 4.70858 24.1682 4.87158 24.2074 5.03368L20.3196 5.9745ZM20.2047 5.50438C20.1791 5.40061 20.1999 5.50539 20.2524 5.62687C20.3238 5.79214 20.4647 6.03085 20.7205 6.23579L23.2216 3.11419C23.9442 3.69319 24.0834 4.52634 24.0883 4.54625L20.2047 5.50438ZM20.7193 6.23485C21.064 6.51147 21.5218 6.63367 21.9692 6.56166C22.3887 6.49413 22.7067 6.2742 22.9071 6.03118L19.8211 3.4862C20.5318 2.62447 22.0097 2.14173 23.2228 3.11512L20.7193 6.23485ZM22.907 6.03128C22.2496 6.82834 21.6621 7.72837 21.143 8.68129L17.6305 6.76756C18.2466 5.63668 18.9718 4.51597 19.8212 3.4861L22.907 6.03128ZM21.1429 8.68145C20.8854 9.15387 20.6484 9.64291 20.4287 10.1469L16.7619 8.54869C17.0239 7.94754 17.3118 7.35224 17.6305 6.76741L21.1429 8.68145ZM20.4288 10.1467C20.4115 10.1864 20.291 10.4851 20.12 10.7542C19.9308 11.0521 19.5627 11.5145 18.9174 11.7768L17.4112 8.07117C16.9995 8.23852 16.7995 8.52147 16.7437 8.60929C16.7142 8.65584 16.7025 8.68313 16.7097 8.66782C16.721 8.64364 16.7262 8.63061 16.7618 8.54888L20.4288 10.1467ZM18.9157 11.7774C18.4342 11.9727 17.9346 11.982 17.9164 11.9832L17.6441 7.9925C17.6919 7.98924 17.7015 7.98874 17.72 7.98727C17.7324 7.9863 17.7252 7.9866 17.7077 7.98896C17.6761 7.99323 17.5616 8.01019 17.4129 8.07049L18.9157 11.7774ZM17.9156 11.9833C17.7415 11.9951 17.5573 12.0067 17.3934 12.0175L17.1303 8.0262C17.3119 8.01423 17.4733 8.00408 17.6448 7.99245L17.9156 11.9833ZM17.3933 12.0175C16.7367 12.0608 16.0798 12.1041 15.4228 12.1472L15.1609 8.15576C15.8173 8.11269 16.4737 8.06945 17.1304 8.0262L17.3933 12.0175ZM15.4236 12.1471C15.0475 12.1719 14.1061 12.2882 13.2396 12.1382L13.922 8.1968C14.1769 8.24093 14.4106 8.20528 15.1602 8.15581L15.4236 12.1471ZM13.2394 12.1381C12.1487 11.9491 11.2472 11.3484 10.6457 10.428L13.9942 8.23988C14.0031 8.25355 14.0056 8.25472 13.9995 8.24843C13.993 8.24183 13.9814 8.23141 13.9649 8.22054C13.9484 8.20965 13.9332 8.2023 13.9222 8.19803C13.9116 8.19392 13.9104 8.19478 13.9222 8.19684L13.2394 12.1381ZM10.6456 10.4278C10.3517 9.97789 10.1459 9.50557 10.0151 9.21322L13.6666 7.58015C13.8225 7.9287 13.9041 8.1019 13.9943 8.24005L10.6456 10.4278ZM10.0151 9.21308C9.81002 8.75447 9.60514 8.29621 9.40022 7.83804L13.0516 6.20488C13.2567 6.66331 13.4617 7.12198 13.6667 7.5803L10.0151 9.21308ZM9.40013 7.83784C9.28899 7.58929 9.17786 7.34075 9.06672 7.0922C8.95559 6.84365 8.84445 6.5951 8.73331 6.34655L12.3849 4.71379C12.496 4.96234 12.6072 5.21089 12.7183 5.45943C12.8294 5.70798 12.9406 5.95653 13.0517 6.20508L9.40013 7.83784ZM8.73345 6.34686C8.7227 6.32282 8.77056 6.44328 8.90388 6.59001C9.06435 6.76663 9.31 6.93922 9.62268 7.01607L10.5773 3.13164C11.7558 3.42127 12.2284 4.36395 12.3848 4.71348L8.73345 6.34686ZM9.62347 7.01626C9.89316 7.08242 10.2034 7.06564 10.4898 6.94988C10.7424 6.84781 10.8827 6.70698 10.9248 6.66163C10.9667 6.6164 10.9708 6.60042 10.9328 6.66158C10.9161 6.68842 10.8966 6.72121 10.8691 6.76878C10.8474 6.80634 10.8058 6.87894 10.7713 6.93735L7.32733 4.90289C7.35471 4.85654 7.63477 4.32678 7.99175 3.94182C8.44168 3.45662 9.34461 2.82925 10.5765 3.13145L9.62347 7.01626ZM10.7713 6.9373C10.3222 7.69771 10.0037 8.59961 9.72263 9.63829L5.86152 8.59339C6.17912 7.41981 6.60974 6.11771 7.3273 4.90294L10.7713 6.9373ZM9.72263 9.63832C9.41269 10.7835 9.15785 11.9493 8.88263 13.1783L4.9793 12.3042C5.2465 11.111 5.52314 9.84367 5.86153 8.59335L9.72263 9.63832ZM8.88263 13.1784C8.59734 14.4522 8.34117 15.7082 8.14446 16.9626L4.19275 16.3429C4.4079 14.9709 4.68398 13.623 4.9793 12.3042L8.88263 13.1784ZM8.14446 16.9626C7.9476 18.218 7.79765 19.4892 7.67629 20.7748L3.69399 20.3989C3.82101 19.0533 3.98023 17.6982 4.19275 16.3429L8.14446 16.9626ZM7.67629 20.7748C7.42936 23.3906 7.29263 26.0092 7.12528 28.7003L3.13299 28.452C3.29698 25.8151 3.43919 23.0981 3.69399 20.3989L7.67629 20.7748ZM7.12528 28.7003C7.08483 29.3507 7.04437 30.0012 7.00392 30.6517L3.01163 30.4034C3.05209 29.753 3.09254 29.1025 3.13299 28.452L7.12528 28.7003ZM7.00392 30.6517C7.03462 30.158 6.85542 29.6013 6.41133 29.1932C6.01352 28.8275 5.54681 28.7111 5.18187 28.7116C4.46561 28.7124 3.45974 29.2442 3.38765 30.4035L7.37994 30.6517C7.29262 32.0558 6.0911 32.7104 5.18682 32.7115C4.72787 32.7121 4.16906 32.5651 3.70456 32.1382C3.19377 31.6688 2.9733 31.02 3.01163 30.4035L7.00392 30.6517Z" fill="black" mask="url(#path-3-inside-1_1_590)"/>
<path d="M5.75823 16.6347C5.96477 16.6747 6.17195 16.7113 6.37971 16.7444C6.59895 16.7792 6.81883 16.8101 7.0391 16.8375C7.24886 16.8636 7.45905 16.8861 7.66955 16.905C7.87899 16.9238 8.08876 16.9389 8.29871 16.9506C8.50867 16.9622 8.71881 16.9702 8.92904 16.9746C8.95531 16.9751 8.98159 16.9756 9.00788 16.9761C9.04691 16.9767 9.08924 16.9582 9.11668 16.9302C9.14337 16.9031 9.16347 16.8585 9.16176 16.8195C9.15998 16.7791 9.1469 16.7371 9.11668 16.7089C9.08629 16.6805 9.0498 16.6638 9.00788 16.663C8.72194 16.6582 8.43614 16.6468 8.15073 16.6287C7.86637 16.6107 7.58241 16.5861 7.29916 16.5549C7.13924 16.5373 6.97955 16.5177 6.82012 16.4959C6.83376 16.4978 6.84739 16.4996 6.86103 16.5015C6.59429 16.465 6.32832 16.4228 6.06336 16.3748C5.98884 16.3612 5.9144 16.3472 5.84005 16.3328C5.79884 16.3248 5.75869 16.3264 5.72147 16.3485C5.68955 16.3676 5.6591 16.4048 5.65075 16.4421C5.64178 16.4821 5.64372 16.5272 5.66626 16.5627C5.68699 16.5954 5.71924 16.627 5.75823 16.6347Z" fill="#100F0D"/>
<path d="M25.1438 15.58C24.7072 15.5347 24.2668 15.5928 23.8396 15.6852C23.4164 15.7769 23.0017 15.9043 22.581 16.0068C22.378 16.0563 22.1731 16.0976 21.9662 16.1261C21.9797 16.1242 21.9934 16.1224 22.007 16.1205C21.6863 16.1642 21.3601 16.1779 21.0386 16.135C21.0523 16.1367 21.0658 16.1386 21.0795 16.1405C20.8777 16.1129 20.6793 16.0624 20.4912 15.9825C20.5035 15.9877 20.5157 15.993 20.528 15.9982C20.4055 15.9456 20.2885 15.8809 20.1792 15.8039C20.1478 15.7818 20.0962 15.7782 20.0606 15.7882C20.0249 15.7982 19.9863 15.8262 19.9686 15.8601C19.9273 15.9399 19.953 16.0243 20.0239 16.0742C20.481 16.3957 21.0507 16.4937 21.5969 16.471C21.8793 16.4592 22.1609 16.4178 22.4375 16.36C22.7349 16.2977 23.0277 16.2144 23.3211 16.1359C23.6625 16.0446 24.006 15.9575 24.3561 15.9088C24.3425 15.9107 24.3289 15.9126 24.3152 15.9145C24.5898 15.8769 24.8678 15.8644 25.1438 15.893C25.1807 15.8969 25.2275 15.8729 25.2526 15.8472C25.2794 15.8201 25.2994 15.7755 25.2977 15.7365C25.2959 15.6961 25.2829 15.6541 25.2526 15.6259C25.2209 15.5962 25.1866 15.5845 25.1438 15.58Z" fill="#100F0D"/>
<path d="M17.2514 16.1265C16.5365 16.1069 15.821 16.107 15.1062 16.127C14.3913 16.147 13.677 16.1867 12.9642 16.2462C12.5626 16.2798 12.1615 16.3196 11.7611 16.3656C11.719 16.3705 11.6834 16.3798 11.6523 16.4114C11.6256 16.4386 11.6055 16.4832 11.6072 16.5222C11.609 16.5626 11.6221 16.6046 11.6523 16.6328C11.6804 16.659 11.7214 16.6832 11.7611 16.6786C12.4717 16.597 13.1845 16.5348 13.8985 16.4926C14.6125 16.4503 15.3275 16.4279 16.0427 16.4252C16.4456 16.4237 16.8486 16.4285 17.2514 16.4396C17.3319 16.4417 17.4089 16.3659 17.4053 16.2831C17.4015 16.1963 17.3376 16.1288 17.2514 16.1265Z" fill="#100F0D"/>
<path d="M17.1334 15.3952C16.8167 15.2626 16.4675 15.6128 16.4615 15.9611C16.4556 16.3093 16.672 16.6171 16.8901 16.8856C17.1083 17.1542 17.3477 17.4321 17.4032 17.7758C17.4341 17.9677 17.4161 18.1943 17.5603 18.3219C17.6432 18.3953 17.7588 18.4133 17.8677 18.4284C18.2641 18.4831 18.6605 18.5379 19.0569 18.5927C19.4263 18.6437 19.8316 18.6873 20.1453 18.4827C20.5066 18.247 20.6174 17.7708 20.6979 17.3421C20.8271 16.6539 20.9564 15.9656 21.0856 15.2774C21.1076 15.16 21.1269 15.0281 21.0597 14.93C20.9392 14.7543 20.6727 14.8332 20.4801 14.9201C19.4753 15.3736 18.3506 15.5491 17.2582 15.4228" fill="#F7906D"/>
<path d="M12.1564 19.362C12.1831 19.5833 12.2199 19.803 12.2708 20.0199C12.2951 20.1234 12.3223 20.226 12.3524 20.3278C12.3817 20.4268 12.4125 20.5279 12.4626 20.6184C12.5122 20.7081 12.5851 20.7879 12.6743 20.8376C12.7581 20.8843 12.8513 20.907 12.9464 20.91C13.0321 20.9128 13.1211 20.8979 13.2025 20.8707C13.2857 20.843 13.3672 20.8043 13.4391 20.7532C13.6215 20.6235 13.7503 20.4387 13.8847 20.2617C13.8767 20.2723 13.8686 20.2829 13.8606 20.2935C13.9362 20.1941 14.0143 20.0885 14.1122 20.0106C14.1018 20.0187 14.0914 20.0269 14.081 20.0351C14.1025 20.0185 14.125 20.004 14.1499 19.9933C14.1376 19.9985 14.1253 20.0038 14.113 20.009C14.1282 20.003 14.1433 19.9986 14.1593 19.996C14.1456 19.9979 14.132 19.9998 14.1184 20.0016C14.1343 19.9996 14.1499 19.9997 14.1657 20.0019C14.1521 19.9999 14.1384 19.9981 14.1248 19.9962C14.138 19.9983 14.1506 20.0017 14.1631 20.0067C14.1508 20.0015 14.1386 19.9962 14.1264 19.9909C14.1391 19.9965 14.1507 20.0035 14.1618 20.0121C14.1513 20.0039 14.141 19.9957 14.1306 19.9876C14.1424 19.9973 14.1528 20.0083 14.1621 20.0206C14.1541 20.01 14.1461 19.9994 14.138 19.9889C14.1519 20.0077 14.1627 20.0283 14.1719 20.0499C14.1667 20.0374 14.1615 20.025 14.1564 20.0125C14.1846 20.0814 14.1958 20.1565 14.2056 20.23C14.2038 20.2162 14.2019 20.2023 14.2001 20.1884C14.214 20.2949 14.2217 20.4015 14.2627 20.5016C14.3068 20.6092 14.3673 20.7056 14.4494 20.788C14.5972 20.9363 14.7982 21.037 15.0034 21.0681C15.0626 21.077 15.1219 21.084 15.1818 21.0837C15.2405 21.0834 15.2992 21.0764 15.3571 21.0665C15.4656 21.048 15.5707 21.005 15.6655 20.9488C15.8676 20.8291 16.03 20.6412 16.134 20.4292C16.2413 20.2106 16.2985 19.9675 16.2988 19.723C16.2988 19.6954 16.298 19.6678 16.2964 19.6402C16.2941 19.5987 16.2808 19.5596 16.2514 19.5296C16.2247 19.5024 16.1809 19.482 16.1426 19.4837C16.1027 19.4855 16.0615 19.4988 16.0337 19.5296C16.007 19.5592 15.9863 19.5988 15.9886 19.6402C15.9937 19.7307 15.9902 19.8214 15.9785 19.9112C15.9803 19.8973 15.9821 19.8835 15.984 19.8696C15.9673 19.9946 15.9349 20.1171 15.8868 20.2335C15.892 20.221 15.8971 20.2085 15.9023 20.196C15.8608 20.2953 15.8079 20.3892 15.7431 20.4747C15.7511 20.4641 15.7592 20.4536 15.7672 20.443C15.7127 20.5142 15.6505 20.5784 15.5804 20.6337C15.5908 20.6255 15.6011 20.6173 15.6115 20.6092C15.5483 20.6584 15.4796 20.6999 15.4063 20.7315C15.4185 20.7262 15.4307 20.721 15.443 20.7157C15.3803 20.7422 15.3145 20.7597 15.2473 20.7689C15.2609 20.7671 15.2745 20.7652 15.2882 20.7634C15.2111 20.7736 15.1331 20.7728 15.0561 20.7623C15.0698 20.7642 15.0834 20.7661 15.097 20.768C15.0169 20.7567 14.9386 20.735 14.8639 20.7034C14.8762 20.7086 14.8884 20.7139 14.9007 20.7191C14.8316 20.6895 14.7664 20.6516 14.7068 20.6051C14.7172 20.6133 14.7276 20.6215 14.738 20.6296C14.6885 20.5906 14.6436 20.546 14.605 20.4958C14.613 20.5063 14.6211 20.5169 14.629 20.5275C14.5948 20.4824 14.5661 20.4334 14.544 20.381C14.5491 20.3934 14.5543 20.406 14.5595 20.4184C14.5367 20.3632 14.5228 20.3059 14.515 20.2466C14.5168 20.2605 14.5187 20.2743 14.5205 20.2882C14.4978 20.1158 14.4899 19.9239 14.37 19.7871C14.2928 19.6992 14.164 19.6679 14.0541 19.6992C13.9389 19.7318 13.8498 19.8228 13.7726 19.9109C13.6915 20.0036 13.6192 20.1038 13.5447 20.202C13.5527 20.1915 13.5608 20.1809 13.5688 20.1704C13.482 20.2844 13.3915 20.3992 13.2787 20.4879C13.2891 20.4797 13.2994 20.4716 13.3099 20.4635C13.2577 20.5039 13.2007 20.5372 13.1403 20.5632C13.1526 20.558 13.1648 20.5527 13.1771 20.5475C13.1201 20.5714 13.0609 20.5887 12.9998 20.5974C13.0134 20.5955 13.0271 20.5937 13.0407 20.5918C12.9924 20.5983 12.9436 20.5992 12.8952 20.5927C12.9089 20.5946 12.9225 20.5965 12.9361 20.5983C12.8993 20.593 12.8635 20.5836 12.8291 20.5693C12.8414 20.5745 12.8536 20.5798 12.8659 20.5851C12.8363 20.5722 12.8085 20.5561 12.7828 20.5364C12.7932 20.5445 12.8036 20.5527 12.8139 20.5608C12.7868 20.5395 12.763 20.5148 12.7419 20.4873C12.75 20.4978 12.758 20.5084 12.766 20.5189C12.7369 20.4797 12.7143 20.4365 12.6953 20.3913C12.7005 20.4038 12.7057 20.4162 12.7108 20.4287C12.6599 20.3049 12.6266 20.172 12.5935 20.0423C12.5585 19.9055 12.5288 19.7674 12.5042 19.6283C12.4901 19.5483 12.4778 19.4679 12.4671 19.3873C12.469 19.4012 12.4708 19.4151 12.4726 19.4289C12.4697 19.4066 12.4669 19.3843 12.4642 19.362C12.459 19.319 12.4505 19.2831 12.4191 19.2513C12.3925 19.2242 12.3487 19.2037 12.3103 19.2054C12.2705 19.2073 12.2293 19.2206 12.2015 19.2513C12.1759 19.2797 12.1516 19.3218 12.1564 19.362Z" fill="#100F0D"/>
<path d="M8.17084 15.4501C8.21804 15.8762 8.26525 16.3023 8.31245 16.7285C8.35441 17.1073 8.40008 17.498 8.58591 17.8291C8.8573 18.3127 9.39836 18.5942 9.94203 18.6588C10.4857 18.7234 11.0345 18.5975 11.5548 18.4247C11.7091 18.3734 11.8632 18.3174 12.0023 18.2323C12.7444 17.7784 12.8023 16.7261 12.7737 15.8458C12.7665 15.6236 12.7558 15.3891 12.6386 15.2014C12.5125 14.9994 12.2827 14.8872 12.0531 14.8355C11.2003 14.6438 10.3316 15.1553 9.46129 15.0801C9.19091 15.0567 8.91795 14.9769 8.65255 15.0344C8.38716 15.0919 8.13696 15.3646 8.22964 15.624" fill="#F7906D"/>
</g>
<path d="M42.8187 22.4378C46.6534 22.4378 49.05 19.915 49.05 15.9037V4.5258H46.6281V15.8785C46.6281 18.5526 45.1397 20.1672 42.8187 20.1672C40.4725 20.1672 39.0345 18.5022 39.0345 15.8785V4.5258H36.5621V15.9037C36.5621 19.9402 38.984 22.4378 42.8187 22.4378Z" fill="#1A1A1A"/>
<path d="M57.9485 22.4378C61.2281 22.4378 63.4482 20.7223 63.4482 18.1742C63.4482 15.9541 61.6822 15.0712 59.8153 14.7937L56.9393 14.4152C56.3591 14.3395 55.1229 14.1377 55.1229 12.952C55.1229 11.8672 56.1573 11.186 57.6205 11.186C58.9576 11.186 59.9163 11.741 60.1938 12.7249H62.5652C62.2877 10.5806 60.4965 9.31915 57.6205 9.31915C54.7445 9.31915 52.8271 10.8328 52.8271 13.0529C52.8271 15.1721 54.5174 15.9794 56.3339 16.2317L59.2099 16.6101C59.8406 16.711 61.102 16.938 61.102 18.2751C61.102 19.6375 59.8406 20.5204 57.9737 20.5204C55.6527 20.5204 54.0886 19.0824 54.1642 17.039H51.7676C51.7171 20.2934 54.3156 22.4378 57.9485 22.4378Z" fill="#1A1A1A"/>
<path d="M72.13 22.4378C75.7124 22.4378 78.4118 20.2177 78.5632 16.9885H76.1665C76.0656 18.9815 74.3753 20.3943 72.0796 20.3943C69.5315 20.3943 67.7151 18.5526 67.7151 15.7271C67.7151 15.7019 67.7151 15.6514 67.7151 15.6262H78.3361C78.4118 11.8167 75.889 9.31915 72.0543 9.31915C68.1944 9.31915 65.4193 12.0186 65.4193 15.828C65.4193 19.6627 68.1692 22.4378 72.13 22.4378ZM68.0178 13.9107C68.5476 12.2204 69.9856 11.1608 72.0543 11.1608C74.0474 11.1608 75.4349 12.1447 75.8638 13.9107H68.0178Z" fill="#1A1A1A"/>
<path d="M81.7502 22.1855H84.1217V14.1882H85.8119L92.674 22.1855L95.8275 22.1855L88.7384 14.1882C91.7405 14.1882 93.7336 12.1952 93.7083 9.34438C93.7083 6.46837 91.6396 4.5258 88.5618 4.5258H81.7502V22.1855ZM84.1217 12.3718V6.61974H88.1834C90.0755 6.61974 91.2864 7.755 91.2864 9.47052C91.2864 11.2113 90.0755 12.3718 88.1834 12.3718H84.1217Z" fill="#1A1A1A"/>
<path d="M102.951 22.4378C106.533 22.4378 109.233 20.2177 109.384 16.9885H106.987C106.886 18.9815 105.196 20.3943 102.9 20.3943C100.352 20.3943 98.5358 18.5526 98.5358 15.7271C98.5358 15.7019 98.5358 15.6514 98.5358 15.6262H109.157C109.233 11.8167 106.71 9.31915 102.875 9.31915C99.0151 9.31915 96.24 12.0186 96.24 15.828C96.24 19.6627 98.9899 22.4378 102.951 22.4378ZM98.8385 13.9107C99.3683 12.2204 100.806 11.1608 102.875 11.1608C104.868 11.1608 106.256 12.1447 106.684 13.9107H98.8385Z" fill="#1A1A1A"/>
<path d="M117.496 22.4378C120.775 22.4378 122.995 20.7223 122.995 18.1742C122.995 15.9541 121.229 15.0712 119.363 14.7937L116.487 14.4152C115.906 14.3395 114.67 14.1377 114.67 12.952C114.67 11.8672 115.705 11.186 117.168 11.186C118.505 11.186 119.463 11.741 119.741 12.7249H122.112C121.835 10.5806 120.044 9.31915 117.168 9.31915C114.292 9.31915 112.374 10.8328 112.374 13.0529C112.374 15.1721 114.065 15.9794 115.881 16.2317L118.757 16.6101C119.388 16.711 120.649 16.938 120.649 18.2751C120.649 19.6375 119.388 20.5204 117.521 20.5204C115.2 20.5204 113.636 19.0824 113.711 17.039H111.315C111.264 20.2934 113.863 22.4378 117.496 22.4378Z" fill="#1A1A1A"/>
<path d="M131.677 22.4378C135.26 22.4378 137.959 20.2177 138.11 16.9885H135.714C135.613 18.9815 133.923 20.3943 131.627 20.3943C129.079 20.3943 127.262 18.5526 127.262 15.7271C127.262 15.7019 127.262 15.6514 127.262 15.6262H137.883C137.959 11.8167 135.436 9.31915 131.602 9.31915C127.742 9.31915 124.967 12.0186 124.967 15.828C124.967 19.6627 127.716 22.4378 131.677 22.4378ZM127.565 13.9107C128.095 12.2204 129.533 11.1608 131.602 11.1608C133.595 11.1608 134.982 12.1447 135.411 13.9107H127.565Z" fill="#1A1A1A"/>
<path d="M146.425 22.4378C148.62 22.4378 150.462 21.3277 151.32 19.587H151.345V22.1855H153.666V9.57143H151.345V12.1699H151.32C150.462 10.4292 148.595 9.31915 146.425 9.31915C142.818 9.31915 140.118 12.1447 140.118 15.8785C140.118 19.6375 142.843 22.4378 146.425 22.4378ZM142.515 15.8785C142.515 13.3052 144.407 11.3879 146.98 11.3879C149.579 11.3879 151.471 13.3052 151.471 15.8785C151.471 18.4517 149.579 20.3691 147.006 20.3691C144.432 20.3691 142.515 18.477 142.515 15.8785Z" fill="#1A1A1A"/>
<path d="M157.007 22.1855H159.328V16.8624C159.328 13.6836 160.715 11.6401 163.541 11.6401C163.642 11.6401 163.818 11.6401 163.919 11.6654V9.34438C163.818 9.31915 163.718 9.31915 163.617 9.31915C161.296 9.31915 159.883 10.6562 159.252 12.9772V9.57143H157.007V22.1855Z" fill="#1A1A1A"/>
<path d="M171.813 22.4378C175.824 22.4378 178.65 19.7636 178.423 15.8028H175.976C176.203 18.477 174.462 20.3943 171.838 20.3943C169.164 20.3943 167.398 18.477 167.398 15.8785C167.398 13.2547 169.215 11.3879 171.763 11.3879C173.453 11.3879 174.815 12.2204 175.446 13.507H177.969C177.212 10.9337 174.84 9.31915 171.763 9.31915C167.802 9.31915 165.001 12.0438 165.001 15.8785C165.001 19.6879 167.777 22.4378 171.813 22.4378Z" fill="#1A1A1A"/>
<path d="M181.306 22.1855H183.627V15.3234C183.753 12.8763 185.191 11.4131 187.386 11.4131C189.455 11.4131 190.691 12.6997 190.691 14.9198V22.1855H193.037V14.5161C193.037 11.2365 191.17 9.31915 188.168 9.31915C185.973 9.31915 184.359 10.3283 183.627 12.0942V4.02124H181.306V22.1855Z" fill="#1A1A1A"/>
</svg>
