<svg width="268" height="42" viewBox="0 0 268 42" fill="none" xmlns="http://www.w3.org/2000/svg">
<rect x="0.651611" y="0.719238" width="41.929" height="41.0368" rx="20.5184" fill="white"/>
<mask id="mask0_1_153" style="mask-type:alpha" maskUnits="userSpaceOnUse" x="0" y="0" width="43" height="42">
<rect x="0.651611" y="0.719238" width="41.929" height="41.0368" rx="20.5184" fill="#9EA271"/>
</mask>
<g mask="url(#mask0_1_153)">
<mask id="path-3-inside-1_1_153" fill="white">
<path d="M7.38475 42.8654C7.61154 39.2186 7.81251 35.569 8.08557 31.9254C8.35664 28.3084 8.74316 24.7012 9.44327 21.1416C9.79142 19.3713 10.1981 17.6139 10.6076 15.8576C10.9692 14.3069 11.3285 12.7486 11.8808 11.2541C12.1482 10.5305 12.4648 9.82506 12.8493 9.15763C12.9463 8.98934 13.0476 8.82356 13.1533 8.66099C13.2481 8.51488 13.3417 8.33836 13.4655 8.2158C13.6149 8.06809 13.8624 8.08661 13.9841 8.26176C14.0801 8.39987 14.1357 8.58508 14.2038 8.73736C14.356 9.0776 14.5082 9.41806 14.6604 9.7583C15.001 10.5202 15.3417 11.282 15.6823 12.0437C16.0307 12.8227 16.3482 13.6463 16.926 14.2831C18.023 15.4927 19.724 15.2654 21.1792 15.1696C22.0886 15.1097 22.9981 15.05 23.9075 14.9901C24.3179 14.9631 24.77 14.9821 25.1668 14.8593C25.523 14.7493 25.7789 14.4928 25.9577 14.1679C26.1419 13.8331 26.2756 13.4668 26.4368 13.1202C26.6061 12.7559 26.7835 12.3954 26.9685 12.0391C27.3485 11.307 27.7611 10.5924 28.2045 9.89823C28.6415 9.21388 29.1075 8.54804 29.6041 7.90712C29.6705 7.8216 29.7372 7.73632 29.8047 7.65172C29.8443 7.60164 29.8982 7.4912 29.9558 7.46742C30.0441 7.43106 30.0551 7.50949 30.0729 7.58106C30.1831 8.02259 30.2896 8.46527 30.3948 8.90817C31.2321 12.4319 31.9335 15.9882 32.5052 19.5664C33.0819 23.1746 33.5481 26.8001 34.0353 30.4216C34.5247 34.0592 35.0139 37.6968 35.5032 41.3344C35.6232 42.2257 35.743 43.1171 35.8629 44.0084C35.8822 44.1512 36.0603 44.2263 36.1832 44.1934C36.3339 44.153 36.384 44.0086 36.3651 43.8676C35.8678 40.1698 35.3703 36.4719 34.873 32.7741C34.377 29.088 33.9029 25.3979 33.3593 21.7187C32.8215 18.0795 32.1758 14.459 31.3798 10.8689C31.1826 9.97986 30.9771 9.09292 30.7631 8.20803C30.7096 7.98692 30.6556 7.76581 30.601 7.54494C30.5551 7.35904 30.5126 7.18366 30.358 7.05973C30.0841 6.83999 29.7314 6.91614 29.5174 7.17566C28.4739 8.4408 27.5649 9.84015 26.7787 11.2832C26.3797 12.0153 26.0162 12.7662 25.6826 13.5315C25.5515 13.8324 25.4092 14.1981 25.0857 14.3295C24.9182 14.3974 24.7313 14.4059 24.5537 14.418C24.3144 14.4343 24.0751 14.4494 23.8357 14.4651C22.9263 14.525 22.0168 14.5849 21.1074 14.6446C20.3278 14.6961 19.5141 14.8013 18.7376 14.6668C17.9932 14.5378 17.4092 14.1519 16.9913 13.5123C16.7253 13.1051 16.5263 12.6581 16.3278 12.2143C16.0438 11.5793 15.76 10.9443 15.4761 10.3096C15.1682 9.62111 14.8604 8.93263 14.5525 8.24415C14.4219 7.95217 14.2488 7.69378 13.9166 7.61216C13.1691 7.42878 12.7792 8.24644 12.4615 8.78424C11.6535 10.152 11.1348 11.6783 10.7202 13.2103C10.2712 14.8692 9.9032 16.5541 9.52757 18.2315C9.12551 20.0269 8.75692 21.8301 8.47171 23.6489C8.18821 25.4568 7.97411 27.2754 7.80211 29.0976C7.45467 32.7781 7.2615 36.4731 7.03205 40.1626C6.97603 41.0636 6.92 41.9645 6.86397 42.8654C6.84281 43.2058 7.36366 43.2045 7.38475 42.8654Z"/>
</mask>
<path d="M7.38475 42.8654C7.61154 39.2186 7.81251 35.569 8.08557 31.9254C8.35664 28.3084 8.74316 24.7012 9.44327 21.1416C9.79142 19.3713 10.1981 17.6139 10.6076 15.8576C10.9692 14.3069 11.3285 12.7486 11.8808 11.2541C12.1482 10.5305 12.4648 9.82506 12.8493 9.15763C12.9463 8.98934 13.0476 8.82356 13.1533 8.66099C13.2481 8.51488 13.3417 8.33836 13.4655 8.2158C13.6149 8.06809 13.8624 8.08661 13.9841 8.26176C14.0801 8.39987 14.1357 8.58508 14.2038 8.73736C14.356 9.0776 14.5082 9.41806 14.6604 9.7583C15.001 10.5202 15.3417 11.282 15.6823 12.0437C16.0307 12.8227 16.3482 13.6463 16.926 14.2831C18.023 15.4927 19.724 15.2654 21.1792 15.1696C22.0886 15.1097 22.9981 15.05 23.9075 14.9901C24.3179 14.9631 24.77 14.9821 25.1668 14.8593C25.523 14.7493 25.7789 14.4928 25.9577 14.1679C26.1419 13.8331 26.2756 13.4668 26.4368 13.1202C26.6061 12.7559 26.7835 12.3954 26.9685 12.0391C27.3485 11.307 27.7611 10.5924 28.2045 9.89823C28.6415 9.21388 29.1075 8.54804 29.6041 7.90712C29.6705 7.8216 29.7372 7.73632 29.8047 7.65172C29.8443 7.60164 29.8982 7.4912 29.9558 7.46742C30.0441 7.43106 30.0551 7.50949 30.0729 7.58106C30.1831 8.02259 30.2896 8.46527 30.3948 8.90817C31.2321 12.4319 31.9335 15.9882 32.5052 19.5664C33.0819 23.1746 33.5481 26.8001 34.0353 30.4216C34.5247 34.0592 35.0139 37.6968 35.5032 41.3344C35.6232 42.2257 35.743 43.1171 35.8629 44.0084C35.8822 44.1512 36.0603 44.2263 36.1832 44.1934C36.3339 44.153 36.384 44.0086 36.3651 43.8676C35.8678 40.1698 35.3703 36.4719 34.873 32.7741C34.377 29.088 33.9029 25.3979 33.3593 21.7187C32.8215 18.0795 32.1758 14.459 31.3798 10.8689C31.1826 9.97986 30.9771 9.09292 30.7631 8.20803C30.7096 7.98692 30.6556 7.76581 30.601 7.54494C30.5551 7.35904 30.5126 7.18366 30.358 7.05973C30.0841 6.83999 29.7314 6.91614 29.5174 7.17566C28.4739 8.4408 27.5649 9.84015 26.7787 11.2832C26.3797 12.0153 26.0162 12.7662 25.6826 13.5315C25.5515 13.8324 25.4092 14.1981 25.0857 14.3295C24.9182 14.3974 24.7313 14.4059 24.5537 14.418C24.3144 14.4343 24.0751 14.4494 23.8357 14.4651C22.9263 14.525 22.0168 14.5849 21.1074 14.6446C20.3278 14.6961 19.5141 14.8013 18.7376 14.6668C17.9932 14.5378 17.4092 14.1519 16.9913 13.5123C16.7253 13.1051 16.5263 12.6581 16.3278 12.2143C16.0438 11.5793 15.76 10.9443 15.4761 10.3096C15.1682 9.62111 14.8604 8.93263 14.5525 8.24415C14.4219 7.95217 14.2488 7.69378 13.9166 7.61216C13.1691 7.42878 12.7792 8.24644 12.4615 8.78424C11.6535 10.152 11.1348 11.6783 10.7202 13.2103C10.2712 14.8692 9.9032 16.5541 9.52757 18.2315C9.12551 20.0269 8.75692 21.8301 8.47171 23.6489C8.18821 25.4568 7.97411 27.2754 7.80211 29.0976C7.45467 32.7781 7.2615 36.4731 7.03205 40.1626C6.97603 41.0636 6.92 41.9645 6.86397 42.8654C6.84281 43.2058 7.36366 43.2045 7.38475 42.8654Z" fill="#100F0D"/>
<path d="M7.38475 42.8654L5.3886 42.7413L5.3886 42.7413L7.38475 42.8654ZM8.08557 31.9254L6.09116 31.7759L6.09116 31.7759L8.08557 31.9254ZM9.44327 21.1416L11.4057 21.5275L11.4057 21.5275L9.44327 21.1416ZM10.6076 15.8576L8.65984 15.4035L8.65984 15.4035L10.6076 15.8576ZM11.8808 11.2541L13.7569 11.9473L13.7568 11.9474L11.8808 11.2541ZM12.8493 9.15763L11.1163 8.15926L11.1164 8.15915L12.8493 9.15763ZM13.1533 8.66099L14.8308 9.74999L14.8299 9.7514L13.1533 8.66099ZM13.4655 8.2158L12.0587 6.79418L12.0594 6.7935L13.4655 8.2158ZM13.9841 8.26176L15.6262 7.12L15.6264 7.12025L13.9841 8.26176ZM14.2038 8.73736L12.3781 9.55405L12.3779 9.55358L14.2038 8.73736ZM14.6604 9.7583L16.486 8.94161L16.4862 8.94195L14.6604 9.7583ZM15.6823 12.0437L17.508 11.2271L17.5081 11.2272L15.6823 12.0437ZM16.926 14.2831L18.4072 12.9392L18.4074 12.9395L16.926 14.2831ZM21.1792 15.1696L21.3106 17.1653L21.3106 17.1653L21.1792 15.1696ZM23.9075 14.9901L23.7761 12.9944L23.7763 12.9944L23.9075 14.9901ZM25.1668 14.8593L24.5757 12.9487L24.5768 12.9483L25.1668 14.8593ZM25.9577 14.1679L27.7099 15.132L27.7099 15.1321L25.9577 14.1679ZM26.4368 13.1202L24.6232 12.277L24.6232 12.2769L26.4368 13.1202ZM26.9685 12.0391L28.7436 12.9606L28.7434 12.961L26.9685 12.0391ZM28.2045 9.89823L29.8901 10.9746L29.8901 10.9747L28.2045 9.89823ZM29.6041 7.90712L28.0232 6.68207L28.0237 6.68144L29.6041 7.90712ZM29.8047 7.65172L31.3739 8.89169L31.3685 8.89844L29.8047 7.65172ZM29.9558 7.46742L29.192 5.61898L29.1947 5.61788L29.9558 7.46742ZM30.0729 7.58106L28.1324 8.06521L28.1318 8.06277L30.0729 7.58106ZM30.3948 8.90817L28.449 9.37048L28.449 9.37042L30.3948 8.90817ZM32.5052 19.5664L30.5303 19.882L30.5303 19.8819L32.5052 19.5664ZM34.0353 30.4216L32.0532 30.6882L32.0532 30.6882L34.0353 30.4216ZM35.5032 41.3344L33.521 41.6013L33.521 41.6009L35.5032 41.3344ZM35.8629 44.0084L33.8809 44.2767L33.8807 44.2749L35.8629 44.0084ZM36.1832 44.1934L36.7013 46.1251L36.701 46.1252L36.1832 44.1934ZM36.3651 43.8676L38.3473 43.601L38.3474 43.6022L36.3651 43.8676ZM34.873 32.7741L36.8551 32.5074L36.8551 32.5075L34.873 32.7741ZM33.3593 21.7187L35.3378 21.4263L35.3378 21.4263L33.3593 21.7187ZM31.3798 10.8689L33.3323 10.4358L33.3323 10.4359L31.3798 10.8689ZM30.7631 8.20803L32.707 7.73762L32.707 7.73785L30.7631 8.20803ZM30.601 7.54494L28.6595 8.02513L28.6592 8.024L30.601 7.54494ZM30.358 7.05973L29.1074 8.62053L29.1062 8.6196L30.358 7.05973ZM29.5174 7.17566L31.0603 8.44815L31.0603 8.44824L29.5174 7.17566ZM26.7787 11.2832L28.535 12.2401L28.5349 12.2402L26.7787 11.2832ZM25.6826 13.5315L23.8491 12.7326L23.8492 12.7324L25.6826 13.5315ZM25.0857 14.3295L25.8388 16.1823L25.8371 16.183L25.0857 14.3295ZM24.5537 14.418L24.6899 16.4134L24.6891 16.4134L24.5537 14.418ZM23.8357 14.4651L23.9673 16.4608L23.9672 16.4608L23.8357 14.4651ZM21.1074 14.6446L20.9757 12.649L20.9764 12.6489L21.1074 14.6446ZM18.7376 14.6668L18.3964 16.6375L18.3961 16.6374L18.7376 14.6668ZM16.9913 13.5123L15.3171 14.6064L15.317 14.6062L16.9913 13.5123ZM16.3278 12.2143L14.502 13.0308L14.502 13.0307L16.3278 12.2143ZM15.4761 10.3096L13.6504 11.1262L13.6503 11.126L15.4761 10.3096ZM14.5525 8.24415L16.3782 7.42747L16.3783 7.42777L14.5525 8.24415ZM13.9166 7.61216L14.3931 5.66975L14.3939 5.66994L13.9166 7.61216ZM12.4615 8.78424L10.7395 7.76705L10.7395 7.767L12.4615 8.78424ZM10.7202 13.2103L12.6508 13.7327L12.6508 13.7328L10.7202 13.2103ZM9.52757 18.2315L11.4792 18.6686L11.4792 18.6686L9.52757 18.2315ZM8.47171 23.6489L10.4476 23.9587L10.4476 23.9587L8.47171 23.6489ZM7.80211 29.0976L9.79326 29.2855L9.79326 29.2855L7.80211 29.0976ZM7.03205 40.1626L9.0282 40.2868L9.0282 40.2868L7.03205 40.1626ZM6.86397 42.8654L4.86783 42.7413L4.86783 42.7413L6.86397 42.8654ZM5.3886 42.7413C5.61421 39.1134 5.81684 35.4364 6.09116 31.7759L10.08 32.0749C9.80818 35.7016 9.60886 39.3238 9.38089 42.9895L5.3886 42.7413ZM6.09116 31.7759C6.36509 28.1209 6.75906 24.4255 7.48086 20.7556L11.4057 21.5275C10.7273 24.9769 10.3482 28.496 10.08 32.0749L6.09116 31.7759ZM7.48086 20.7556C7.83664 18.9466 8.25094 17.1573 8.65984 15.4035L12.5554 16.3118C12.1453 18.0705 11.7462 19.7961 11.4057 21.5275L7.48086 20.7556ZM8.65984 15.4035C9.01548 13.8782 9.40139 12.1938 10.0048 10.5609L13.7568 11.9474C13.2557 13.3035 12.9229 14.7356 12.5554 16.3118L8.65984 15.4035ZM10.0048 10.561C10.3031 9.75344 10.6652 8.94242 11.1163 8.15926L14.5823 10.156C14.2645 10.7077 13.9932 11.3075 13.7569 11.9473L10.0048 10.561ZM11.1164 8.15915C11.2304 7.96131 11.3504 7.76479 11.4767 7.57058L14.8299 9.7514C14.7447 9.88234 14.6622 10.0174 14.5823 10.1561L11.1164 8.15915ZM11.4758 7.57199C11.4841 7.55916 11.4945 7.54241 11.522 7.49772C11.5448 7.46072 11.5821 7.40009 11.6237 7.33649C11.7015 7.21715 11.8468 7.00389 12.0587 6.79418L14.8723 9.63742C14.9209 9.58927 14.9516 9.55092 14.9647 9.53382C14.9779 9.51665 14.9817 9.50997 14.9734 9.52265C14.9642 9.53675 14.9526 9.5553 14.9273 9.59633C14.9163 9.61417 14.9013 9.63861 14.886 9.66307C14.8703 9.68819 14.8516 9.718 14.8308 9.74999L11.4758 7.57199ZM12.0594 6.7935C13.0687 5.79576 14.7773 5.89909 15.6262 7.12L12.3421 9.40352C12.9474 10.2741 14.1612 10.3404 14.8716 9.6381L12.0594 6.7935ZM15.6264 7.12025C15.7986 7.36806 15.9016 7.60749 15.9507 7.72529C15.9761 7.78615 16.0021 7.85245 16.0126 7.87902C16.0278 7.91705 16.0309 7.92399 16.0297 7.92114L12.3779 9.55358C12.3426 9.47459 12.3133 9.40127 12.2959 9.35743C12.2913 9.34582 12.2866 9.33399 12.2828 9.32446C12.2788 9.31431 12.2754 9.30579 12.2722 9.29773C12.2657 9.28149 12.2614 9.27094 12.2582 9.2632C12.2512 9.24636 12.2538 9.25404 12.264 9.27432C12.2743 9.29469 12.2994 9.34209 12.3419 9.40328L15.6264 7.12025ZM16.0294 7.92067C16.1056 8.09095 16.1818 8.26127 16.2579 8.43142C16.334 8.60162 16.41 8.77165 16.486 8.94161L12.8347 10.575C12.7585 10.4047 12.6824 10.2344 12.6063 10.0642C12.5302 9.89405 12.4542 9.72401 12.3781 9.55405L16.0294 7.92067ZM16.4862 8.94195C16.8268 9.7038 17.1674 10.4656 17.508 11.2271L13.8566 12.8602C13.5159 12.0985 13.1752 11.3365 12.8346 10.5746L16.4862 8.94195ZM17.5081 11.2272C17.9281 12.1663 18.1003 12.601 18.4072 12.9392L15.4447 15.627C14.5961 14.6916 14.1334 13.4791 13.8566 12.8602L17.5081 11.2272ZM18.4074 12.9395C18.523 13.067 18.697 13.1792 19.1383 13.228C19.6576 13.2855 20.205 13.2294 21.0478 13.1739L21.3106 17.1653C20.6981 17.2056 19.6675 17.3111 18.6982 17.2037C17.651 17.0878 16.4259 16.7088 15.4445 15.6267L18.4074 12.9395ZM21.0477 13.1739C21.5026 13.144 21.9574 13.1141 22.4122 13.0842C22.8669 13.0543 23.3215 13.0244 23.7761 12.9944L24.039 16.9858C23.5841 17.0158 23.1293 17.0457 22.6746 17.0756C22.2198 17.1055 21.7652 17.1353 21.3106 17.1653L21.0477 13.1739ZM23.7763 12.9944C23.9126 12.9855 24.0471 12.9807 24.1477 12.9769C24.2583 12.9728 24.3377 12.9698 24.4119 12.9649C24.5658 12.9548 24.5974 12.942 24.5757 12.9487L25.758 16.77C25.3394 16.8995 24.9466 16.9385 24.6726 16.9564C24.5329 16.9655 24.3976 16.9704 24.2956 16.9742C24.1836 16.9783 24.1077 16.9813 24.0388 16.9858L23.7763 12.9944ZM24.5768 12.9483C24.4554 12.9858 24.3555 13.049 24.2862 13.1118C24.2228 13.1693 24.2016 13.2108 24.2055 13.2037L27.7099 15.1321C27.3584 15.7709 26.7431 16.4658 25.7568 16.7703L24.5768 12.9483ZM24.2054 13.2037C24.3591 12.9244 24.3533 12.8574 24.6232 12.277L28.2503 13.9634C28.1978 14.0763 27.9246 14.7419 27.7099 15.132L24.2054 13.2037ZM24.6232 12.2769C24.8049 11.8863 24.9951 11.4995 25.1936 11.1173L28.7434 12.961C28.5719 13.2912 28.4074 13.6256 28.2503 13.9635L24.6232 12.2769ZM25.1934 11.1177C25.601 10.3325 26.0434 9.56622 26.5189 8.82175L29.8901 10.9747C29.4788 11.6186 29.0961 12.2814 28.7436 12.9606L25.1934 11.1177ZM26.5188 8.82186C26.9862 8.08998 27.4869 7.37419 28.0232 6.68207L31.1851 9.13217C30.7281 9.72188 30.2968 10.3378 29.8901 10.9746L26.5188 8.82186ZM28.0237 6.68144C28.0937 6.59127 28.1662 6.49859 28.2408 6.40499L31.3685 8.89844C31.3083 8.97404 31.2473 9.05194 31.1846 9.1328L28.0237 6.68144ZM28.2355 6.41175C28.1787 6.48353 28.1414 6.54391 28.1588 6.51695C28.1609 6.51372 28.1618 6.51236 28.1663 6.50535C28.1699 6.49987 28.1751 6.49187 28.1809 6.48292C28.1924 6.46542 28.2101 6.43856 28.2317 6.40759C28.2688 6.35424 28.3488 6.24227 28.4641 6.12099C28.5634 6.01664 28.8054 5.77873 29.192 5.61899L30.7195 9.31585C30.9099 9.23718 31.0531 9.14232 31.1484 9.06946C31.245 8.99573 31.3163 8.92628 31.3628 8.87742C31.4506 8.7851 31.5038 8.70833 31.5153 8.69182C31.5265 8.67571 31.5394 8.65567 31.5149 8.69333C31.5094 8.70189 31.4504 8.79486 31.3739 8.89168L28.2355 6.41175ZM29.1947 5.61788C29.4392 5.51726 29.9107 5.37686 30.4839 5.517C31.1076 5.66952 31.4982 6.06455 31.7045 6.37375C31.8836 6.64226 31.9573 6.89178 31.9796 6.96834C31.9993 7.03569 32.0284 7.15718 32.014 7.09935L28.1318 8.06277C28.1085 7.96916 28.1296 8.054 28.1394 8.08765C28.1519 8.13052 28.214 8.34929 28.3771 8.59378C28.5674 8.87898 28.9376 9.25675 29.5338 9.40254C30.0795 9.53597 30.5165 9.3994 30.7168 9.31696L29.1947 5.61788ZM32.0134 7.09691C32.1261 7.54874 32.2346 7.99953 32.3407 8.44591L28.449 9.37042C28.3446 8.93101 28.24 8.49644 28.1324 8.06521L32.0134 7.09691ZM32.3407 8.44585C33.1898 12.0196 33.9008 15.6249 34.4802 19.2508L30.5303 19.8819C29.9662 16.3515 29.2743 12.8443 28.449 9.37048L32.3407 8.44585ZM34.4801 19.2508C35.0618 22.8904 35.5325 26.55 36.0175 30.1549L32.0532 30.6882C31.5638 27.0503 31.1019 23.4587 30.5303 19.882L34.4801 19.2508ZM36.0175 30.1549C36.5069 33.7926 36.9961 37.4302 37.4853 41.0678L33.521 41.6009C33.0318 37.9633 32.5426 34.3258 32.0532 30.6882L36.0175 30.1549ZM37.4853 41.0674C37.6053 41.959 37.7252 42.8506 37.845 43.7419L33.8807 44.2749C33.7609 43.3835 33.6411 42.4924 33.521 41.6013L37.4853 41.0674ZM37.8448 43.7401C37.7433 42.9906 37.2432 42.5678 36.9094 42.3937C36.5929 42.2285 36.1546 42.1304 35.6655 42.2615L36.701 46.1252C36.0888 46.2892 35.5001 46.1701 35.0589 45.9399C34.6006 45.7007 34.0017 45.1689 33.8809 44.2767L37.8448 43.7401ZM35.6652 42.2616C35.1574 42.3978 34.7573 42.7515 34.5443 43.1831C34.3578 43.5609 34.3528 43.909 34.3828 44.133L38.3474 43.6022C38.3963 43.9672 38.3757 44.4581 38.1312 44.9534C37.8602 45.5025 37.3597 45.9485 36.7013 46.1251L35.6652 42.2616ZM34.383 44.1342C33.8844 40.4271 33.3894 36.7478 32.8908 33.0406L36.8551 32.5075C37.3512 36.196 37.8512 39.9124 38.3473 43.601L34.383 44.1342ZM32.8908 33.0408C32.3928 29.3389 31.9219 25.6732 31.3808 22.011L35.3378 21.4263C35.8839 25.1226 36.3613 28.837 36.8551 32.5074L32.8908 33.0408ZM31.3808 22.011C30.8488 18.4108 30.2113 14.8379 29.4272 11.3018L33.3323 10.4359C34.1404 14.08 34.7943 17.7482 35.3378 21.4263L31.3808 22.011ZM29.4272 11.3019C29.2328 10.4252 29.0301 9.55059 28.8191 8.67821L32.707 7.73785C32.9241 8.63525 33.1324 9.53458 33.3323 10.4358L29.4272 11.3019ZM28.8192 8.67844C28.7663 8.45978 28.7131 8.24203 28.6595 8.02513L32.5425 7.06474C32.5981 7.2896 32.6529 7.51406 32.707 7.73762L28.8192 8.67844ZM28.6592 8.024C28.6455 7.96857 28.6438 7.96259 28.6439 7.96274C28.6452 7.96752 28.6576 8.01058 28.6844 8.07259C28.7459 8.2149 28.8731 8.43282 29.1074 8.62053L31.6085 5.49893C32.3742 6.11238 32.5251 6.99428 32.5428 7.06587L28.6592 8.024ZM29.1062 8.6196C29.4129 8.86567 29.8272 8.97789 30.2331 8.91256C30.6111 8.85171 30.8897 8.6551 31.0603 8.44815L27.9744 5.90317C28.7446 4.9693 30.3206 4.46539 31.6097 5.49986L29.1062 8.6196ZM31.0603 8.44824C30.1128 9.59698 29.2727 10.886 28.535 12.2401L25.0225 10.3263C25.8571 8.79431 26.835 7.28461 27.9745 5.90307L31.0603 8.44824ZM28.5349 12.2402C28.1665 12.9162 27.8284 13.6139 27.516 14.3306L23.8492 12.7324C24.2039 11.9186 24.5929 11.1145 25.0225 10.3262L28.5349 12.2402ZM27.5161 14.3304C27.4806 14.412 27.3411 14.757 27.1444 15.0665C26.9295 15.4048 26.529 15.9018 25.8388 16.1823L24.3326 12.4767C23.9658 12.6258 23.7982 12.8742 23.7681 12.9216C23.7514 12.9479 23.7509 12.9535 23.7683 12.9164C23.7899 12.8703 23.8044 12.8353 23.8491 12.7326L27.5161 14.3304ZM25.8371 16.183C25.309 16.3971 24.7575 16.4088 24.6899 16.4134L24.4176 12.4227C24.4304 12.4218 24.4431 12.4209 24.4541 12.4202C24.4656 12.4194 24.4755 12.4188 24.4852 12.4181C24.5045 12.4168 24.5188 12.4158 24.5309 12.4148C24.5558 12.4129 24.5612 12.412 24.5562 12.4126C24.5506 12.4134 24.5264 12.4168 24.4898 12.4256C24.4526 12.4345 24.3988 12.4499 24.3343 12.4761L25.8371 16.183ZM24.6891 16.4134C24.4485 16.4298 24.1977 16.4456 23.9673 16.4608L23.7042 12.4695C23.9524 12.4531 24.1803 12.4388 24.4183 12.4226L24.6891 16.4134ZM23.9672 16.4608C23.0578 16.5207 22.1481 16.5806 21.2383 16.6403L20.9764 12.6489C21.8856 12.5893 22.7948 12.5294 23.7043 12.4695L23.9672 16.4608ZM21.2391 16.6403C20.6463 16.6794 19.4787 16.8249 18.3964 16.6375L19.0788 12.6961C19.5495 12.7776 20.0094 12.7127 20.9757 12.649L21.2391 16.6403ZM18.3961 16.6374C17.0985 16.4126 16.0347 15.7046 15.3171 14.6064L18.6655 12.4183C18.7837 12.5991 18.888 12.6631 19.079 12.6962L18.3961 16.6374ZM15.317 14.6062C14.9491 14.0431 14.688 13.4465 14.502 13.0308L18.1535 11.3977C18.3645 11.8696 18.5014 12.1671 18.6657 12.4185L15.317 14.6062ZM14.502 13.0307C14.218 12.3955 13.9342 11.7608 13.6504 11.1262L17.3018 9.493C17.5857 10.1279 17.8697 10.763 18.1536 11.3979L14.502 13.0307ZM13.6503 11.126C13.4963 10.7817 13.3424 10.4375 13.1885 10.0932C13.0346 9.74901 12.8807 9.40478 12.7267 9.06054L16.3783 7.42777C16.5322 7.77201 16.6862 8.11625 16.8401 8.46049C16.994 8.80472 17.1479 9.14896 17.3019 9.4932L13.6503 11.126ZM12.7269 9.06085C12.698 8.99622 12.7247 9.07843 12.8299 9.19423C12.9623 9.33991 13.1728 9.48887 13.4393 9.55437L14.3939 5.66994C15.6648 5.98226 16.1855 6.99677 16.3782 7.42747L12.7269 9.06085ZM13.4401 9.55456C13.5362 9.57814 13.6568 9.5925 13.7936 9.58283C13.9308 9.57313 14.0577 9.54115 14.1681 9.49657C14.3798 9.41097 14.4844 9.29844 14.4944 9.28766C14.5043 9.277 14.48 9.30186 14.4162 9.40455C14.3866 9.45215 14.3548 9.50589 14.3155 9.57388C14.2819 9.63186 14.229 9.72437 14.1835 9.80147L10.7395 7.767C10.811 7.6459 11.1403 7.02196 11.5614 6.56785C12.0754 6.01352 13.0574 5.34207 14.3931 5.66975L13.4401 9.55456ZM14.1835 9.80142C13.5097 10.942 13.0471 12.2682 12.6508 13.7327L8.78966 12.6878C9.2225 11.0884 9.79731 9.36204 10.7395 7.76705L14.1835 9.80142ZM12.6508 13.7328C12.216 15.3391 11.8589 16.9732 11.4792 18.6686L7.57591 17.7945C7.94752 16.135 8.32648 14.3992 8.78966 12.6878L12.6508 13.7328ZM11.4792 18.6686C11.0822 20.4415 10.7236 22.1987 10.4476 23.9587L6.49586 23.339C6.79028 21.4615 7.16883 19.6123 7.57591 17.7944L11.4792 18.6686ZM10.4476 23.9587C10.1719 25.7167 9.96243 27.4934 9.79326 29.2855L5.81096 28.9096C5.98579 27.0575 6.20453 25.1968 6.49586 23.339L10.4476 23.9587ZM9.79326 29.2855C9.44976 32.9244 9.25933 36.5701 9.0282 40.2868L5.03591 40.0385C5.26367 36.3761 5.45958 32.6319 5.81096 28.9096L9.79326 29.2855ZM9.0282 40.2868C8.97217 41.1877 8.91614 42.0886 8.86011 42.9895L4.86783 42.7413C4.92385 41.8404 4.97988 40.9394 5.03591 40.0385L9.0282 40.2868ZM8.86011 42.9895C8.88934 42.5195 8.71809 41.9805 8.28683 41.5842C7.90186 41.2303 7.45288 41.1198 7.10604 41.1202C6.42597 41.1211 5.45776 41.6291 5.3886 42.7413L9.38089 42.9895C9.29065 44.4408 8.05146 45.119 7.11099 45.1202C6.63394 45.1208 6.0574 44.9679 5.58006 44.5292C5.05644 44.048 4.82802 43.3815 4.86783 42.7413L8.86011 42.9895Z" fill="black" mask="url(#path-3-inside-1_1_153)"/>
<path d="M7.90346 23.6237C8.18951 23.6791 8.47647 23.7299 8.76421 23.7756C9.06786 23.8238 9.37239 23.8666 9.67746 23.9046C9.96798 23.9407 10.2591 23.9719 10.5506 23.9981C10.8407 24.0241 11.1312 24.0451 11.422 24.0612C11.7128 24.0773 12.0039 24.0884 12.295 24.0945C12.3314 24.0952 12.3678 24.0959 12.4042 24.0965C12.4583 24.0974 12.5169 24.0718 12.5549 24.033C12.5919 23.9955 12.6197 23.9338 12.6173 23.8798C12.6149 23.8237 12.5968 23.7656 12.5549 23.7265C12.5128 23.6872 12.4623 23.664 12.4042 23.663C12.0082 23.6563 11.6123 23.6406 11.2171 23.6154C10.8232 23.5906 10.4299 23.5564 10.0376 23.5132C9.81615 23.4889 9.59498 23.4617 9.37417 23.4315C9.39307 23.4341 9.41195 23.4367 9.43083 23.4393C9.0614 23.3888 8.69303 23.3302 8.32606 23.2637C8.22285 23.2449 8.11976 23.2256 8.01678 23.2056C7.95971 23.1945 7.9041 23.1967 7.85255 23.2274C7.80833 23.2538 7.76617 23.3054 7.7546 23.3571C7.74217 23.4125 7.74486 23.4748 7.77608 23.5241C7.80479 23.5693 7.84946 23.6131 7.90346 23.6237Z" fill="#100F0D"/>
<path d="M34.7521 22.1633C34.1474 22.1005 33.5374 22.181 32.9459 22.309C32.3596 22.436 31.7853 22.6124 31.2027 22.7544C30.9215 22.823 30.6377 22.8802 30.3511 22.9196C30.3699 22.917 30.3889 22.9145 30.4077 22.9119C29.9635 22.9724 29.5118 22.9913 29.0664 22.9319C29.0854 22.9343 29.1042 22.937 29.1231 22.9396C28.8437 22.9014 28.5688 22.8314 28.3083 22.7208C28.3254 22.7279 28.3423 22.7353 28.3593 22.7425C28.1897 22.6696 28.0276 22.5799 27.8762 22.4733C27.8328 22.4428 27.7612 22.4377 27.7119 22.4516C27.6624 22.4654 27.609 22.5042 27.5845 22.5512C27.5272 22.6617 27.5629 22.7786 27.661 22.8477C28.2942 23.293 29.0831 23.4287 29.8397 23.3973C30.2308 23.381 30.6208 23.3237 31.0039 23.2435C31.4158 23.1572 31.8213 23.0418 32.2277 22.9331C32.7005 22.8067 33.1762 22.686 33.6612 22.6187C33.6423 22.6213 33.6235 22.624 33.6045 22.6266C33.9849 22.5745 34.3699 22.5571 34.7521 22.5968C34.8032 22.6022 34.868 22.5689 34.9028 22.5333C34.9399 22.4958 34.9676 22.434 34.9652 22.38C34.9628 22.3241 34.9447 22.2659 34.9028 22.2268C34.8589 22.1857 34.8114 22.1694 34.7521 22.1633Z" fill="#100F0D"/>
<path d="M23.8215 22.9199C22.8313 22.8929 21.8405 22.893 20.8504 22.9206C19.8603 22.9483 18.8709 23.0033 17.8838 23.0857C17.3276 23.1322 16.772 23.1874 16.2175 23.251C16.1592 23.2578 16.1098 23.2708 16.0668 23.3146C16.0298 23.3522 16.002 23.4139 16.0044 23.4679C16.0068 23.5239 16.0249 23.582 16.0668 23.6211C16.1057 23.6575 16.1625 23.6909 16.2175 23.6847C17.2017 23.5716 18.1889 23.4854 19.1777 23.427C20.1666 23.3684 21.1569 23.3373 22.1474 23.3337C22.7055 23.3316 23.2636 23.3382 23.8215 23.3535C23.933 23.3565 24.0397 23.2516 24.0346 23.1368C24.0294 23.0167 23.9409 22.9232 23.8215 22.9199Z" fill="#100F0D"/>
<path d="M23.658 21.9073C23.2194 21.7237 22.7357 22.2087 22.7275 22.6911C22.7192 23.1733 23.0189 23.5997 23.321 23.9716C23.6232 24.3435 23.9548 24.7285 24.0317 25.2045C24.0745 25.4703 24.0496 25.784 24.2493 25.9608C24.3641 26.0625 24.5242 26.0873 24.675 26.1083C25.224 26.1841 25.773 26.26 26.322 26.3358C26.8336 26.4065 27.3949 26.4669 27.8295 26.1835C28.3298 25.8571 28.4834 25.1975 28.5948 24.6037C28.7738 23.6506 28.9528 22.6973 29.1318 21.7442C29.1622 21.5816 29.1889 21.3989 29.0958 21.2631C28.929 21.0197 28.5598 21.1289 28.2932 21.2493C26.9014 21.8774 25.3439 22.1205 23.8309 21.9456" fill="#F7906D"/>
<path d="M16.7647 27.4013C16.8016 27.7077 16.8526 28.0121 16.9231 28.3125C16.9567 28.4558 16.9944 28.5979 17.0361 28.7389C17.0767 28.8761 17.1194 29.0161 17.1888 29.1415C17.2575 29.2656 17.3584 29.3762 17.482 29.445C17.598 29.5097 17.7271 29.5411 17.8588 29.5453C17.9775 29.5491 18.1007 29.5284 18.2134 29.4908C18.3287 29.4524 18.4416 29.3989 18.5412 29.328C18.7938 29.1484 18.9723 28.8925 19.1583 28.6474C19.1473 28.6621 19.1361 28.6768 19.125 28.6914C19.2296 28.5538 19.3379 28.4075 19.4734 28.2996C19.459 28.3109 19.4446 28.3221 19.4302 28.3335C19.4599 28.3105 19.4912 28.2905 19.5256 28.2756C19.5086 28.2829 19.4916 28.2901 19.4746 28.2974C19.4955 28.289 19.5165 28.283 19.5386 28.2794C19.5197 28.282 19.5008 28.2846 19.482 28.2872C19.504 28.2844 19.5256 28.2845 19.5475 28.2875C19.5286 28.2848 19.5097 28.2823 19.4909 28.2797C19.5092 28.2825 19.5267 28.2873 19.5439 28.2942C19.5269 28.2869 19.51 28.2797 19.493 28.2724C19.5106 28.2801 19.5268 28.2898 19.5421 28.3016C19.5276 28.2904 19.5133 28.279 19.4989 28.2677C19.5153 28.2812 19.5296 28.2964 19.5425 28.3134C19.5314 28.2987 19.5204 28.2841 19.5092 28.2695C19.5284 28.2955 19.5434 28.3241 19.5561 28.354C19.5489 28.3367 19.5418 28.3195 19.5346 28.3023C19.5736 28.3977 19.5892 28.5017 19.6027 28.6035C19.6002 28.5843 19.5976 28.5651 19.5951 28.5459C19.6144 28.6933 19.6251 28.841 19.6819 28.9797C19.743 29.1287 19.8268 29.2622 19.9405 29.3763C20.1451 29.5817 20.4236 29.7211 20.7077 29.7642C20.7898 29.7766 20.8718 29.7863 20.9548 29.7859C21.0362 29.7854 21.1174 29.7757 21.1976 29.762C21.3479 29.7363 21.4935 29.6769 21.6247 29.5991C21.9047 29.4332 22.1296 29.173 22.2737 28.8794C22.4222 28.5766 22.5015 28.2399 22.5018 27.9013C22.5018 27.863 22.5007 27.8248 22.4986 27.7866C22.4953 27.7291 22.477 27.675 22.4362 27.6334C22.3992 27.5957 22.3385 27.5675 22.2855 27.5699C22.2303 27.5723 22.1732 27.5908 22.1347 27.6334C22.0977 27.6744 22.069 27.7292 22.0723 27.7866C22.0793 27.912 22.0745 28.0376 22.0583 28.1619C22.0608 28.1427 22.0633 28.1235 22.0659 28.1043C22.0427 28.2774 21.9979 28.4472 21.9312 28.6083C21.9384 28.5909 21.9456 28.5737 21.9527 28.5564C21.8952 28.6939 21.822 28.824 21.7323 28.9424C21.7433 28.9277 21.7545 28.9131 21.7656 28.8985C21.6902 28.997 21.6039 29.0861 21.5068 29.1625C21.5212 29.1513 21.5356 29.1399 21.55 29.1287C21.4624 29.1968 21.3673 29.2543 21.2657 29.298C21.2827 29.2908 21.2996 29.2835 21.3166 29.2762C21.2297 29.3128 21.1386 29.3371 21.0455 29.3499C21.0644 29.3474 21.0832 29.3447 21.1021 29.3422C20.9954 29.3563 20.8874 29.3553 20.7808 29.3407C20.7996 29.3434 20.8185 29.3459 20.8374 29.3486C20.7264 29.3329 20.618 29.3029 20.5145 29.2591C20.5316 29.2664 20.5485 29.2736 20.5655 29.2809C20.4698 29.2399 20.3794 29.1874 20.297 29.123C20.3114 29.1344 20.3257 29.1456 20.3402 29.1569C20.2716 29.1028 20.2094 29.0411 20.1559 28.9716C20.167 28.9862 20.1782 29.0009 20.1892 29.0154C20.1418 28.953 20.102 28.8852 20.0714 28.8126C20.0786 28.8298 20.0857 28.8472 20.0929 28.8644C20.0613 28.7879 20.0421 28.7086 20.0313 28.6265C20.0338 28.6457 20.0364 28.6649 20.0389 28.6841C20.0075 28.4453 19.9966 28.1796 19.8305 27.9901C19.7236 27.8683 19.5452 27.825 19.3929 27.8683C19.2334 27.9135 19.11 28.0394 19.0031 28.1616C18.8908 28.2899 18.7906 28.4287 18.6875 28.5647C18.6985 28.5501 18.7097 28.5354 18.7208 28.5209C18.6007 28.6788 18.4752 28.8378 18.319 28.9607C18.3334 28.9493 18.3478 28.9381 18.3622 28.9268C18.2899 28.9828 18.2111 29.0289 18.1274 29.065C18.1443 29.0577 18.1613 29.0504 18.1783 29.0431C18.0994 29.0763 18.0174 29.1003 17.9328 29.1123C17.9516 29.1097 17.9705 29.1071 17.9894 29.1046C17.9225 29.1135 17.855 29.1147 17.7879 29.1058C17.8068 29.1085 17.8257 29.111 17.8446 29.1135C17.7936 29.1063 17.744 29.0932 17.6964 29.0734C17.7134 29.0807 17.7303 29.0879 17.7474 29.0952C17.7063 29.0775 17.6679 29.0551 17.6322 29.0278C17.6466 29.0391 17.661 29.0504 17.6754 29.0617C17.6378 29.0321 17.6048 28.9979 17.5756 28.9598C17.5867 28.9744 17.5979 28.9891 17.609 29.0036C17.5686 28.9492 17.5373 28.8894 17.5111 28.8269C17.5182 28.8442 17.5254 28.8614 17.5326 28.8786C17.462 28.7071 17.4158 28.5231 17.37 28.3434C17.3216 28.1541 17.2804 27.9627 17.2464 27.7701C17.2269 27.6593 17.2098 27.5479 17.195 27.4364C17.1976 27.4556 17.2001 27.4748 17.2026 27.494C17.1986 27.4631 17.1947 27.4322 17.191 27.4013C17.1838 27.3417 17.1719 27.2921 17.1285 27.248C17.0916 27.2104 17.0309 27.182 16.9778 27.1845C16.9227 27.187 16.8656 27.2054 16.8271 27.248C16.7916 27.2873 16.758 27.3456 16.7647 27.4013Z" fill="#100F0D"/>
<path d="M11.2449 21.9832C11.3103 22.5733 11.3757 23.1635 11.4411 23.7538C11.4992 24.2784 11.5624 24.8196 11.8198 25.2781C12.1957 25.9478 12.945 26.3377 13.698 26.4272C14.451 26.5167 15.211 26.3423 15.9317 26.103C16.1454 26.032 16.3589 25.9544 16.5515 25.8365C17.5793 25.2078 17.6595 23.7505 17.6199 22.5312C17.6099 22.2234 17.5951 21.8987 17.4327 21.6387C17.2581 21.359 16.9399 21.2035 16.6219 21.132C15.4407 20.8664 14.2376 21.5749 13.0322 21.4707C12.6577 21.4383 12.2797 21.3278 11.9121 21.4074C11.5445 21.487 11.198 21.8648 11.3264 22.224" fill="#F7906D"/>
</g>
<path d="M59.232 31.6613C64.543 31.6613 67.8623 28.1672 67.8623 22.6117V6.85336H64.508V22.5767C64.508 26.2804 62.4465 28.5167 59.232 28.5167C55.9825 28.5167 53.9908 26.2106 53.9908 22.5767V6.85336H50.5667V22.6117C50.5667 28.2022 53.921 31.6613 59.232 31.6613Z" fill="#1A1A1A"/>
<path d="M80.1866 31.6613C84.7289 31.6613 87.8037 29.2854 87.8037 25.7563C87.8037 22.6815 85.3579 21.4586 82.7722 21.0743L78.789 20.5502C77.9853 20.4453 76.2733 20.1658 76.2733 18.5236C76.2733 17.0211 77.7058 16.0777 79.7324 16.0777C81.5842 16.0777 82.912 16.8464 83.2964 18.2091H86.5808C86.1964 15.2392 83.7156 13.4921 79.7324 13.4921C75.7491 13.4921 73.0936 15.5886 73.0936 18.6633C73.0936 21.5984 75.4347 22.7165 77.9504 23.0659L81.9337 23.59C82.8072 23.7298 84.5542 24.0442 84.5542 25.8961C84.5542 27.7829 82.8072 29.0058 80.2216 29.0058C77.007 29.0058 74.8407 27.0142 74.9455 24.184H71.6261C71.5562 28.6914 75.1551 31.6613 80.1866 31.6613Z" fill="#1A1A1A"/>
<path d="M99.828 31.6613C104.79 31.6613 108.528 28.5865 108.738 24.1141H105.419C105.279 26.8744 102.938 28.8311 99.7581 28.8311C96.2291 28.8311 93.7133 26.2804 93.7133 22.3671C93.7133 22.3321 93.7133 22.2623 93.7133 22.2273H108.423C108.528 16.9512 105.034 13.4921 99.7232 13.4921C94.3772 13.4921 90.5337 17.2308 90.5337 22.5068C90.5337 27.8178 94.3423 31.6613 99.828 31.6613ZM94.1326 19.8513C94.8664 17.5103 96.858 16.0428 99.7232 16.0428C102.483 16.0428 104.405 17.4055 104.999 19.8513H94.1326Z" fill="#1A1A1A"/>
<path d="M113.152 31.3119H116.436V20.2357H118.777L128.281 31.3119H132.649L122.83 20.2357C126.988 20.2357 129.749 17.4754 129.714 13.5271C129.714 9.5438 126.849 6.85336 122.586 6.85336H113.152V31.3119ZM116.436 17.7199V9.75344H122.062C124.682 9.75344 126.36 11.3258 126.36 13.7018C126.36 16.1127 124.682 17.7199 122.062 17.7199H116.436Z" fill="#1A1A1A"/>
<path d="M142.514 31.6613C147.476 31.6613 151.215 28.5865 151.424 24.1141H148.105C147.965 26.8744 145.624 28.8311 142.445 28.8311C138.916 28.8311 136.4 26.2804 136.4 22.3671C136.4 22.3321 136.4 22.2623 136.4 22.2273H151.11C151.215 16.9512 147.721 13.4921 142.41 13.4921C137.064 13.4921 133.22 17.2308 133.22 22.5068C133.22 27.8178 137.029 31.6613 142.514 31.6613ZM136.819 19.8513C137.553 17.5103 139.544 16.0428 142.41 16.0428C145.17 16.0428 147.092 17.4055 147.686 19.8513H136.819Z" fill="#1A1A1A"/>
<path d="M162.659 31.6613C167.201 31.6613 170.276 29.2854 170.276 25.7563C170.276 22.6815 167.83 21.4586 165.245 21.0743L161.262 20.5502C160.458 20.4453 158.746 20.1658 158.746 18.5236C158.746 17.0211 160.178 16.0777 162.205 16.0777C164.057 16.0777 165.385 16.8464 165.769 18.2091H169.053C168.669 15.2392 166.188 13.4921 162.205 13.4921C158.222 13.4921 155.566 15.5886 155.566 18.6633C155.566 21.5984 157.907 22.7165 160.423 23.0659L164.406 23.59C165.28 23.7298 167.027 24.0442 167.027 25.8961C167.027 27.7829 165.28 29.0058 162.694 29.0058C159.48 29.0058 157.313 27.0142 157.418 24.184H154.099C154.029 28.6914 157.628 31.6613 162.659 31.6613Z" fill="#1A1A1A"/>
<path d="M182.301 31.6613C187.262 31.6613 191.001 28.5865 191.21 24.1141H187.891C187.751 26.8744 185.41 28.8311 182.231 28.8311C178.702 28.8311 176.186 26.2804 176.186 22.3671C176.186 22.3321 176.186 22.2623 176.186 22.2273H190.896C191.001 16.9512 187.507 13.4921 182.196 13.4921C176.85 13.4921 173.006 17.2308 173.006 22.5068C173.006 27.8178 176.815 31.6613 182.301 31.6613ZM176.605 19.8513C177.339 17.5103 179.331 16.0428 182.196 16.0428C184.956 16.0428 186.878 17.4055 187.472 19.8513H176.605Z" fill="#1A1A1A"/>
<path d="M202.726 31.6613C205.766 31.6613 208.317 30.1239 209.505 27.713H209.54V31.3119H212.754V13.8415H209.54V17.4404H209.505C208.317 15.0295 205.731 13.4921 202.726 13.4921C197.73 13.4921 193.991 17.4055 193.991 22.5767C193.991 27.7829 197.765 31.6613 202.726 31.6613ZM197.311 22.5767C197.311 19.0128 199.931 16.3573 203.495 16.3573C207.094 16.3573 209.715 19.0128 209.715 22.5767C209.715 26.1407 207.094 28.7962 203.53 28.7962C199.966 28.7962 197.311 26.1756 197.311 22.5767Z" fill="#1A1A1A"/>
<path d="M217.382 31.3119H220.596V23.9394C220.596 19.5369 222.518 16.7067 226.432 16.7067C226.571 16.7067 226.816 16.7067 226.956 16.7416V13.5271C226.816 13.4921 226.676 13.4921 226.536 13.4921C223.322 13.4921 221.365 15.344 220.492 18.5585V13.8415H217.382V31.3119Z" fill="#1A1A1A"/>
<path d="M237.888 31.6613C243.444 31.6613 247.357 27.9576 247.043 22.4719H243.654C243.968 26.1756 241.557 28.8311 237.923 28.8311C234.22 28.8311 231.774 26.1756 231.774 22.5767C231.774 18.9429 234.289 16.3573 237.818 16.3573C240.16 16.3573 242.046 17.5103 242.92 19.2923H246.414C245.366 15.7283 242.081 13.4921 237.818 13.4921C232.333 13.4921 228.454 17.2657 228.454 22.5767C228.454 27.8528 232.298 31.6613 237.888 31.6613Z" fill="#1A1A1A"/>
<path d="M251.036 31.3119H254.25V21.808C254.425 18.4188 256.417 16.3922 259.457 16.3922C262.322 16.3922 264.034 18.1742 264.034 21.249V31.3119H267.283V20.6899C267.283 16.1476 264.698 13.4921 260.54 13.4921C257.5 13.4921 255.264 14.8897 254.25 17.3356V6.15454H251.036V31.3119Z" fill="#1A1A1A"/>
</svg>
